999
dxflib 3.26.4.0
  0
SECTION
  2
HEADER
  9
$ACADVER
  1
AC1015
  9
$HANDSEED
  5
FFFF
  9
$DIMADEC
 70
0
  9
$DIMASZ
 40
2.5
  9
$DIMATFIT
 70
0
  9
$DIMAUNIT
 70
0
  9
$DIMAZIN
 70
2
  9
$DIMBLK
  1
0
  9
$DIMBLK1
  1
0
  9
$DIMBLK2
  1
0
  9
$DIMDEC
 70
4
  9
$DIMDLI
 40
5.0
  9
$DIMDSEP
 70
46
  9
$DIMEXE
 40
1.25
  9
$DIMEXO
 40
0.625
  9
$DIMGAP
 40
0.625
  9
$DIMLFAC
 40
1.0
  9
$DIMLUNIT
 70
2
  9
$DIMSCALE
 40
1.0
  9
$DIMTAD
 70
1
  9
$DIMTIH
 70
0
  9
$DIMTSZ
 40
0.0
  9
$DIMTXT
 40
2.5
  9
$DIMZIN
 70
8
  9
$DWGCODEPAGE
  3
ANSI_1252
  9
$INSUNITS
 70
4
  9
$LTSCALE
 40
1.0
  9
$MAXACTVP
 70
64
  9
$MEASUREMENT
 70
1
  9
$MIRRTEXT
 70
0
  9
$PDMODE
 70
0
  9
$PDSIZE
 40
0.0
  0
ENDSEC
  0
SECTION
  2
TABLES
  0
TABLE
  2
VPORT
  5
8
100
AcDbSymbolTable
 70
1
  0
VPORT
  5
30
100
AcDbSymbolTableRecord
100
AcDbViewportTableRecord
  2
*Active
 70
0
 10
0.0
 20
0.0
 11
1.0
 21
1.0
 12
286.3055555555554861
 22
148.5
 13
0.0
 23
0.0
 14
10.0
 24
10.0
 15
10.0
 25
10.0
 16
0.0
 26
0.0
 36
1.0
 17
0.0
 27
0.0
 37
0.0
 40
297.0
 41
1.92798353909465
 42
50.0
 43
0.0
 44
0.0
 50
0.0
 51
0.0
 71
0
 72
100
 73
1
 74
3
 75
1
 76
1
 77
0
 78
0
281
0
 65
1
110
0.0
120
0.0
130
0.0
111
1.0
121
0.0
131
0.0
112
0.0
122
1.0
132
0.0
 79
0
146
0.0
  0
ENDTAB
  0
TABLE
  2
LTYPE
  5
5
100
AcDbSymbolTable
 70
41
  0
LTYPE
  5
16
100
AcDbSymbolTableRecord
100
AcDbLinetypeTableRecord
  2
Continuous
 70
0
  3
Solid line
 72
65
 73
0
 40
0.0
  0
LTYPE
  5
31
100
AcDbSymbolTableRecord
100
AcDbLinetypeTableRecord
  2
ACAD_ISO03W100
 70
0
  3
ISO dash space __    __    __    __    __    __
 72
65
 73
2
 40
30.0
 49
12.0
 74
0
 49
-18.0
 74
0
  0
LTYPE
  5
32
100
AcDbSymbolTableRecord
100
AcDbLinetypeTableRecord
  2
BORDER2
 70
0
  3
Border (.5x) __.__.__.__.__.__.__.__.__.__.__.
 72
65
 73
6
 40
22.2250000000000014
 49
6.3499999999999996
 74
0
 49
-3.1749999999999998
 74
0
 49
6.3499999999999996
 74
0
 49
-3.125
 74
0
 49
0.1
 74
0
 49
-3.125
 74
0
  0
LTYPE
  5
33
100
AcDbSymbolTableRecord
100
AcDbLinetypeTableRecord
  2
DIVIDE2
 70
0
  3
Divide (.5x) __..__..__..__..__..__..__..__.._
 72
65
 73
6
 40
15.8749999999999982
 49
6.3499999999999996
 74
0
 49
-3.125
 74
0
 49
0.1
 74
0
 49
-3.0750000000000002
 74
0
 49
0.1
 74
0
 49
-3.125
 74
0
  0
LTYPE
  5
14
100
AcDbSymbolTableRecord
100
AcDbLinetypeTableRecord
  2
BYBLOCK
 70
0
  3

 72
65
 73
0
 40
0.0
  0
LTYPE
  5
34
100
AcDbSymbolTableRecord
100
AcDbLinetypeTableRecord
  2
PHANTOMX2
 70
0
  3
Phantom (2x) ____________    ____    ____   _
 72
65
 73
6
 40
127.0000000000000142
 49
63.5
 74
0
 49
-12.6999999999999993
 74
0
 49
12.6999999999999993
 74
0
 49
-12.6999999999999993
 74
0
 49
12.6999999999999993
 74
0
 49
-12.6999999999999993
 74
0
  0
LTYPE
  5
35
100
AcDbSymbolTableRecord
100
AcDbLinetypeTableRecord
  2
BORDER
 70
0
  3
Border __ __ . __ __ . __ __ . __ __ . __ __ .
 72
65
 73
6
 40
44.4499999999999957
 49
12.6999999999999993
 74
0
 49
-6.3499999999999996
 74
0
 49
12.6999999999999993
 74
0
 49
-6.2999999999999998
 74
0
 49
0.1
 74
0
 49
-6.2999999999999998
 74
0
  0
LTYPE
  5
36
100
AcDbSymbolTableRecord
100
AcDbLinetypeTableRecord
  2
DASHDOT2
 70
0
  3
Dash dot (.5x) _._._._._._._._._._._._._._._.
 72
65
 73
4
 40
12.6999999999999993
 49
6.3499999999999996
 74
0
 49
-3.125
 74
0
 49
0.1
 74
0
 49
-3.125
 74
0
  0
LTYPE
  5
37
100
AcDbSymbolTableRecord
100
AcDbLinetypeTableRecord
  2
ACAD_ISO09W100
 70
0
  3
ISO long-dash double-short-dash ____ __ __ ____
 72
65
 73
6
 40
45.0
 49
24.0
 74
0
 49
-3.0
 74
0
 49
6.0
 74
0
 49
-3.0
 74
0
 49
6.0
 74
0
 49
-3.0
 74
0
  0
LTYPE
  5
38
100
AcDbSymbolTableRecord
100
AcDbLinetypeTableRecord
  2
PHANTOM2
 70
0
  3
Phantom (.5x) ___ _ _ ___ _ _ ___ _ _ ___ _ _
 72
65
 73
6
 40
31.7500000000000036
 49
15.875
 74
0
 49
-3.1749999999999998
 74
0
 49
3.1749999999999998
 74
0
 49
-3.1749999999999998
 74
0
 49
3.1749999999999998
 74
0
 49
-3.1749999999999998
 74
0
  0
LTYPE
  5
39
100
AcDbSymbolTableRecord
100
AcDbLinetypeTableRecord
  2
ACAD_ISO14W100
 70
0
  3
ISO dash triple-dot __ . . . __ . . . __ . . . _
 72
65
 73
8
 40
24.0000000000000036
 49
12.0
 74
0
 49
-2.9500000000000002
 74
0
 49
0.1
 74
0
 49
-2.9000000000000004
 74
0
 49
0.1
 74
0
 49
-2.9000000000000004
 74
0
 49
0.1
 74
0
 49
-2.9500000000000002
 74
0
  0
LTYPE
  5
3A
100
AcDbSymbolTableRecord
100
AcDbLinetypeTableRecord
  2
ACAD_ISO02W100
 70
0
  3
ISO dash __ __ __ __ __ __ __ __ __ __ __ __ __
 72
65
 73
2
 40
15.0
 49
12.0
 74
0
 49
-3.0
 74
0
  0
LTYPE
  5
3B
100
AcDbSymbolTableRecord
100
AcDbLinetypeTableRecord
  2
BORDERX2
 70
0
  3
Border (2x) ____  ____  .  ____  ____  .  ___
 72
65
 73
6
 40
88.8999999999999773
 49
25.3999999999999986
 74
0
 49
-12.6999999999999993
 74
0
 49
25.3999999999999986
 74
0
 49
-12.6499999999999986
 74
0
 49
0.1
 74
0
 49
-12.6499999999999986
 74
0
  0
LTYPE
  5
3C
100
AcDbSymbolTableRecord
100
AcDbLinetypeTableRecord
  2
ACAD_ISO06W100
 70
0
  3
ISO long-dash triple-dot ____ ... ____ ... ____
 72
65
 73
8
 40
36.0000000000000071
 49
24.0
 74
0
 49
-2.9500000000000002
 74
0
 49
0.1
 74
0
 49
-2.9000000000000004
 74
0
 49
0.1
 74
0
 49
-2.9000000000000004
 74
0
 49
0.1
 74
0
 49
-2.9500000000000002
 74
0
  0
LTYPE
  5
3D
100
AcDbSymbolTableRecord
100
AcDbLinetypeTableRecord
  2
HIDDEN2
 70
0
  3
Hidden (.5x) _ _ _ _ _ _ _ _ _ _ _ _ _ _ _ _ _ 
 72
65
 73
2
 40
4.7624999999999993
 49
3.1749999999999998
 74
0
 49
-1.5874999999999999
 74
0
  0
LTYPE
  5
3E
100
AcDbSymbolTableRecord
100
AcDbLinetypeTableRecord
  2
ACAD_ISO05W100
 70
0
  3
ISO long-dash double-dot ____ .. ____ .. ____ . 
 72
65
 73
6
 40
33.0000000000000071
 49
24.0
 74
0
 49
-2.9500000000000002
 74
0
 49
0.1
 74
0
 49
-2.9000000000000004
 74
0
 49
0.1
 74
0
 49
-2.9500000000000002
 74
0
  0
LTYPE
  5
3F
100
AcDbSymbolTableRecord
100
AcDbLinetypeTableRecord
  2
DOT2
 70
0
  3
Dot (.5x) ........................................
 72
65
 73
2
 40
3.1749999999999998
 49
0.1
 74
0
 49
-3.0749999999999997
 74
0
  0
LTYPE
  5
40
100
AcDbSymbolTableRecord
100
AcDbLinetypeTableRecord
  2
ACAD_ISO08W100
 70
0
  3
ISO long-dash short-dash ____ __ ____ __ ____ _
 72
65
 73
4
 40
36.0
 49
24.0
 74
0
 49
-3.0
 74
0
 49
6.0
 74
0
 49
-3.0
 74
0
  0
LTYPE
  5
41
100
AcDbSymbolTableRecord
100
AcDbLinetypeTableRecord
  2
DOT
 70
0
  3
Dot . . . . . . . . . . . . . . . . . . . . . . . .
 72
65
 73
2
 40
6.3499999999999996
 49
0.1
 74
0
 49
-6.25
 74
0
  0
LTYPE
  5
42
100
AcDbSymbolTableRecord
100
AcDbLinetypeTableRecord
  2
ACAD_ISO04W100
 70
0
  3
ISO long-dash dot ____ . ____ . ____ . ____ . _
 72
65
 73
4
 40
30.0
 49
24.0
 74
0
 49
-2.9500000000000002
 74
0
 49
0.1
 74
0
 49
-2.9500000000000002
 74
0
  0
LTYPE
  5
43
100
AcDbSymbolTableRecord
100
AcDbLinetypeTableRecord
  2
HIDDENX2
 70
0
  3
Hidden (2x) ____ ____ ____ ____ ____ ____ ____ 
 72
65
 73
2
 40
19.0499999999999972
 49
12.6999999999999993
 74
0
 49
-6.3499999999999996
 74
0
  0
LTYPE
  5
44
100
AcDbSymbolTableRecord
100
AcDbLinetypeTableRecord
  2
ACAD_ISO13W100
 70
0
  3
ISO double-dash double-dot __ __ . . __ __ . . _
 72
65
 73
8
 40
36.0000000000000071
 49
12.0
 74
0
 49
-3.0
 74
0
 49
12.0
 74
0
 49
-2.9500000000000002
 74
0
 49
0.1
 74
0
 49
-2.9000000000000004
 74
0
 49
0.1
 74
0
 49
-2.9500000000000002
 74
0
  0
LTYPE
  5
45
100
AcDbSymbolTableRecord
100
AcDbLinetypeTableRecord
  2
CENTERX2
 70
0
  3
Center (2x) ________  __  ________  __  _____
 72
65
 73
4
 40
101.6000000000000085
 49
63.5
 74
0
 49
-12.6999999999999993
 74
0
 49
12.6999999999999993
 74
0
 49
-12.6999999999999993
 74
0
  0
LTYPE
  5
46
100
AcDbSymbolTableRecord
100
AcDbLinetypeTableRecord
  2
DIVIDE
 70
0
  3
Divide ____ . . ____ . . ____ . . ____ . . ____
 72
65
 73
6
 40
31.7500000000000036
 49
12.6999999999999993
 74
0
 49
-6.2999999999999998
 74
0
 49
0.1
 74
0
 49
-6.25
 74
0
 49
0.1
 74
0
 49
-6.2999999999999998
 74
0
  0
LTYPE
  5
47
100
AcDbSymbolTableRecord
100
AcDbLinetypeTableRecord
  2
CENTER2
 70
0
  3
Center (.5x) ___ _ ___ _ ___ _ ___ _ ___ _ ___
 72
65
 73
4
 40
28.5750000000000028
 49
19.0500000000000007
 74
0
 49
-3.1749999999999998
 74
0
 49
3.1749999999999998
 74
0
 49
-3.1749999999999998
 74
0
  0
LTYPE
  5
48
100
AcDbSymbolTableRecord
100
AcDbLinetypeTableRecord
  2
PHANTOM
 70
0
  3
Phantom ______  __  __  ______  __  __  ______ 
 72
65
 73
6
 40
63.5000000000000071
 49
31.75
 74
0
 49
-6.3499999999999996
 74
0
 49
6.3499999999999996
 74
0
 49
-6.3499999999999996
 74
0
 49
6.3499999999999996
 74
0
 49
-6.3499999999999996
 74
0
  0
LTYPE
  5
49
100
AcDbSymbolTableRecord
100
AcDbLinetypeTableRecord
  2
HIDDEN
 70
0
  3
Hidden __ __ __ __ __ __ __ __ __ __ __ __ __ __
 72
65
 73
2
 40
9.5249999999999986
 49
6.3499999999999996
 74
0
 49
-3.1749999999999998
 74
0
  0
LTYPE
  5
4A
100
AcDbSymbolTableRecord
100
AcDbLinetypeTableRecord
  2
DOTX2
 70
0
  3
Dot (2x) .  .  .  .  .  .  .  .  .  .  .  .  .  .
 72
65
 73
2
 40
12.6999999999999993
 49
0.1
 74
0
 49
-12.5999999999999996
 74
0
  0
LTYPE
  5
4B
100
AcDbSymbolTableRecord
100
AcDbLinetypeTableRecord
  2
DASHED
 70
0
  3
Dashed __ __ __ __ __ __ __ __ __ __ __ __ __ _
 72
65
 73
2
 40
19.0499999999999972
 49
12.6999999999999993
 74
0
 49
-6.3499999999999996
 74
0
  0
LTYPE
  5
4C
100
AcDbSymbolTableRecord
100
AcDbLinetypeTableRecord
  2
ACAD_ISO07W100
 70
0
  3
ISO dot . . . . . . . . . . . . . . . . . . . . 
 72
65
 73
2
 40
3.0
 49
0.1
 74
0
 49
-2.8999999999999999
 74
0
  0
LTYPE
  5
15
100
AcDbSymbolTableRecord
100
AcDbLinetypeTableRecord
  2
BYLAYER
 70
0
  3

 72
65
 73
0
 40
0.0
  0
LTYPE
  5
4D
100
AcDbSymbolTableRecord
100
AcDbLinetypeTableRecord
  2
CENTER
 70
0
  3
Center ____ _ ____ _ ____ _ ____ _ ____ _ ____
 72
65
 73
4
 40
50.8000000000000043
 49
31.75
 74
0
 49
-6.3499999999999996
 74
0
 49
6.3499999999999996
 74
0
 49
-6.3499999999999996
 74
0
  0
LTYPE
  5
4E
100
AcDbSymbolTableRecord
100
AcDbLinetypeTableRecord
  2
ACAD_ISO12W100
 70
0
  3
ISO dash double-dot __ . . __ . . __ . . __ . . 
 72
65
 73
6
 40
21.0
 49
12.0
 74
0
 49
-2.9500000000000002
 74
0
 49
0.1
 74
0
 49
-2.9000000000000004
 74
0
 49
0.1
 74
0
 49
-2.9500000000000002
 74
0
  0
LTYPE
  5
4F
100
AcDbSymbolTableRecord
100
AcDbLinetypeTableRecord
  2
ACAD_ISO15W100
 70
0
  3
ISO double-dash triple-dot __ __ . . . __ __ . .
 72
65
 73
10
 40
39.0000000000000071
 49
12.0
 74
0
 49
-3.0
 74
0
 49
12.0
 74
0
 49
-2.9500000000000002
 74
0
 49
0.1
 74
0
 49
-2.9000000000000004
 74
0
 49
0.1
 74
0
 49
-2.9000000000000004
 74
0
 49
0.1
 74
0
 49
-2.9500000000000002
 74
0
  0
LTYPE
  5
50
100
AcDbSymbolTableRecord
100
AcDbLinetypeTableRecord
  2
DASHDOTX2
 70
0
  3
Dash dot (2x) ____  .  ____  .  ____  .  ___
 72
65
 73
4
 40
50.7999999999999972
 49
25.3999999999999986
 74
0
 49
-12.6499999999999986
 74
0
 49
0.1
 74
0
 49
-12.6499999999999986
 74
0
  0
LTYPE
  5
51
100
AcDbSymbolTableRecord
100
AcDbLinetypeTableRecord
  2
DASHEDX2
 70
0
  3
Dashed (2x) ____  ____  ____  ____  ____  ___
 72
65
 73
2
 40
38.0999999999999943
 49
25.3999999999999986
 74
0
 49
-12.6999999999999993
 74
0
  0
LTYPE
  5
52
100
AcDbSymbolTableRecord
100
AcDbLinetypeTableRecord
  2
ACAD_ISO10W100
 70
0
  3
ISO dash dot __ . __ . __ . __ . __ . __ . __ . 
 72
65
 73
4
 40
18.0
 49
12.0
 74
0
 49
-2.9500000000000002
 74
0
 49
0.1
 74
0
 49
-2.9500000000000002
 74
0
  0
LTYPE
  5
53
100
AcDbSymbolTableRecord
100
AcDbLinetypeTableRecord
  2
DASHED2
 70
0
  3
Dashed (.5x) _ _ _ _ _ _ _ _ _ _ _ _ _ _ _ _ _ 
 72
65
 73
2
 40
9.5249999999999986
 49
6.3499999999999996
 74
0
 49
-3.1749999999999998
 74
0
  0
LTYPE
  5
54
100
AcDbSymbolTableRecord
100
AcDbLinetypeTableRecord
  2
DASHDOT
 70
0
  3
Dash dot __ . __ . __ . __ . __ . __ . __ . __
 72
65
 73
4
 40
25.4000000000000021
 49
12.6999999999999993
 74
0
 49
-6.2999999999999998
 74
0
 49
0.1
 74
0
 49
-6.2999999999999998
 74
0
  0
LTYPE
  5
55
100
AcDbSymbolTableRecord
100
AcDbLinetypeTableRecord
  2
ACAD_ISO11W100
 70
0
  3
ISO double-dash dot __ __ . __ __ . __ __ . __ _
 72
65
 73
6
 40
33.0
 49
12.0
 74
0
 49
-3.0
 74
0
 49
12.0
 74
0
 49
-2.9500000000000002
 74
0
 49
0.1
 74
0
 49
-2.9500000000000002
 74
0
  0
LTYPE
  5
56
100
AcDbSymbolTableRecord
100
AcDbLinetypeTableRecord
  2
DIVIDEX2
 70
0
  3
Divide (2x) ________  .  .  ________  .  .  _
 72
65
 73
6
 40
63.5
 49
25.3999999999999986
 74
0
 49
-12.6499999999999986
 74
0
 49
0.1
 74
0
 49
-12.5999999999999979
 74
0
 49
0.1
 74
0
 49
-12.6499999999999986
 74
0
  0
ENDTAB
  0
TABLE
  2
LAYER
  5
2
100
AcDbSymbolTable
 70
2
  0
LAYER
  5
57
100
AcDbSymbolTableRecord
100
AcDbLayerTableRecord
  2
\U+0448\U+0430\U+0440 1
 70
0
 62
7
420
0
  6
Continuous
370
25
390
F
  0
LAYER
  5
10
100
AcDbSymbolTableRecord
100
AcDbLayerTableRecord
  2
0
 70
0
 62
7
420
16777215
  6
Continuous
370
25
390
F
  0
ENDTAB
  0
TABLE
  2
STYLE
  5
3
100
AcDbSymbolTable
 70
1
  0
STYLE
  5
58
100
AcDbSymbolTableRecord
100
AcDbTextStyleTableRecord
  2
Standard
 70
0
 40
0.0
 41
1.0
 50
0.0
 71
0
 42
2.5
  3

  4

1001
ACAD
1000
txt
1071
0
  0
ENDTAB
  0
TABLE
  2
VIEW
  5
6
100
AcDbSymbolTable
 70
0
  0
ENDTAB
  0
TABLE
  2
UCS
  5
7
100
AcDbSymbolTable
 70
0
  0
ENDTAB
  0
TABLE
  2
APPID
  5
9
100
AcDbSymbolTable
 70
1
  0
APPID
  5
12
100
AcDbSymbolTableRecord
100
AcDbRegAppTableRecord
  2
ACAD
 70
0
  0
APPID
  5
59
100
AcDbSymbolTableRecord
100
AcDbRegAppTableRecord
  2
QCAD
 70
0
  0
ENDTAB
  0
TABLE
  2
DIMSTYLE
  5
A
100
AcDbSymbolTable
 70
1
100
AcDbDimStyleTable
 71
0
  0
DIMSTYLE
105
27
100
AcDbSymbolTableRecord
100
AcDbDimStyleTableRecord
  2
Standard
 41
2.5
 42
0.625
 43
3.75
 44
1.25
 70
0
 73
0
 74
0
 77
1
 78
8
140
2.5
141
2.5
143
0.03937007874016
147
0.625
171
3
172
1
271
2
272
2
274
3
278
44
283
0
284
8
340
58
  0
ENDTAB
  0
TABLE
  2
BLOCK_RECORD
  5
1
100
AcDbSymbolTable
 70
1
  0
BLOCK_RECORD
  5
1F
100
AcDbSymbolTableRecord
100
AcDbBlockTableRecord
  2
*Model_Space
340
22
  0
BLOCK_RECORD
  5
1B
100
AcDbSymbolTableRecord
100
AcDbBlockTableRecord
  2
*Paper_Space
340
1E
  0
BLOCK_RECORD
  5
23
100
AcDbSymbolTableRecord
100
AcDbBlockTableRecord
  2
*Paper_Space0
340
26
  0
BLOCK_RECORD
  5
5A
100
AcDbSymbolTableRecord
100
AcDbBlockTableRecord
  2
mobo_rastr
340
0
  0
BLOCK_RECORD
  5
5B
100
AcDbSymbolTableRecord
100
AcDbBlockTableRecord
  2
\U+0440\U+0430\U+0441\U+0442\U+0440\U+043e\U+0432\U+0438\U+0439
340
0
  0
ENDTAB
  0
ENDSEC
  0
SECTION
  2
BLOCKS
  0
BLOCK
  5
20
100
AcDbEntity
  8
0
100
AcDbBlockBegin
  2
*Model_Space
 70
0
 10
0.0
 20
0.0
 30
0.0
  3
*Model_Space
  1

  0
ENDBLK
  5
21
100
AcDbEntity
  8
0
100
AcDbBlockEnd
  0
BLOCK
  5
1C
100
AcDbEntity
 67
1
  8
0
100
AcDbBlockBegin
  2
*Paper_Space
 70
0
 10
0.0
 20
0.0
 30
0.0
  3
*Paper_Space
  1

  0
ENDBLK
  5
1D
100
AcDbEntity
 67
1
  8
0
100
AcDbBlockEnd
  0
BLOCK
  5
24
100
AcDbEntity
  8
0
100
AcDbBlockBegin
  2
*Paper_Space0
 70
0
 10
0.0
 20
0.0
 30
0.0
  3
*Paper_Space0
  1

  0
ENDBLK
  5
25
100
AcDbEntity
  8
0
100
AcDbBlockEnd
  0
BLOCK
  5
5C
100
AcDbEntity
  8
0
100
AcDbBlockBegin
  2
mobo_rastr
 70
0
 10
0.0
 20
0.0
 30
0.0
  3
mobo_rastr
  1

  0
ARC
  5
5D
100
AcDbEntity
  8
0
 62
256
370
-1
 48
1.0
  6
BYLAYER
100
AcDbCircle
 10
11.4792592069756729
 20
-49.4880216623514073
 30
0.0
 40
0.6735927589397932
100
AcDbArc
 50
164.9512945185159083
 51
224.9430491324210664
  0
ARC
  5
5E
100
AcDbEntity
  8
0
 62
256
370
-1
 48
1.0
  6
BYLAYER
100
AcDbCircle
 10
9.4945294478768361
 20
-49.2930049237612238
 30
0.0
 40
1.3343893225701555
100
AcDbArc
 50
359.1358401707337293
 51
20.4001880849113277
  0
ARC
  5
5F
100
AcDbEntity
  8
0
 62
256
370
-1
 48
1.0
  6
BYLAYER
100
AcDbCircle
 10
9.5233134302710347
 20
-58.7056822464346979
 30
0.0
 40
9.9531024081792214
100
AcDbArc
 50
82.9481728668238958
 51
100.9698997451827296
  0
ARC
  5
60
100
AcDbEntity
  8
0
 62
256
370
-1
 48
1.0
  6
BYLAYER
100
AcDbCircle
 10
5.6298493850715801
 20
-40.7584631535492434
 30
0.0
 40
8.4169224583219489
100
AcDbArc
 50
263.3489843461724718
 51
283.7420942821608492
  0
LWPOLYLINE
  5
61
100
AcDbEntity
  8
0
 62
256
370
-1
 48
1.0
  6
BYLAYER
100
AcDbPolyline
 90
3
 70
128
 10
4.654988000000003
 20
-49.1187400000000096
 10
2.2499740000000088
 20
-49.1385400000000061
 10
2.1204090000000093
 20
-48.9987400000000051
  0
ARC
  5
62
100
AcDbEntity
  8
0
 62
256
370
-1
 48
1.0
  6
BYLAYER
100
AcDbCircle
 10
1.5538014956926616
 20
-49.7466463018929943
 30
0.0
 40
0.9383005383930307
100
AcDbArc
 50
52.8527379343296602
 51
108.8992647129809086
  0
ARC
  5
63
100
AcDbEntity
  8
0
 62
256
370
-1
 48
1.0
  6
BYLAYER
100
AcDbCircle
 10
0.9415760573418809
 20
-47.9990506130812733
 30
0.0
 40
0.9134793362277809
100
AcDbArc
 50
230.4483845428556492
 51
289.7250111425132673
  0
ARC
  5
64
100
AcDbEntity
  8
0
 62
256
370
-1
 48
1.0
  6
BYLAYER
100
AcDbCircle
 10
0.7194490057745896
 20
-48.3140683103922086
 30
0.0
 40
0.5299519061722218
100
AcDbArc
 50
196.3294957079467622
 51
227.2764581339721701
  0
ARC
  5
65
100
AcDbEntity
  8
0
 62
256
370
-1
 48
1.0
  6
BYLAYER
100
AcDbCircle
 10
0.0122948680384988
 20
-48.4537336226263875
 30
0.0
 40
0.1987994888130136
100
AcDbArc
 50
357.3081829336422857
 51
32.0768191287170765
  0
ARC
  5
66
100
AcDbEntity
  8
0
 62
256
370
-1
 48
1.0
  6
BYLAYER
100
AcDbCircle
 10
467.4574443677695399
 20
-43.2737870741389372
 30
0.0
 40
467.304251032052548
100
AcDbArc
 50
179.1704198982091896
 51
180.6221768060312627
  0
ARC
  5
67
100
AcDbEntity
  8
0
 62
256
370
-1
 48
1.0
  6
BYLAYER
100
AcDbCircle
 10
-0.4507738124643218
 20
-36.3405377103110681
 30
0.0
 40
0.6740739746712148
100
AcDbArc
 50
345.6178217984858634
 51
14.4633979712530625
  0
ARC
  5
68
100
AcDbEntity
  8
0
 62
256
370
-1
 48
1.0
  6
BYLAYER
100
AcDbCircle
 10
169.2788912209112482
 20
-32.3811133735143244
 30
0.0
 40
169.1194507878575166
100
AcDbArc
 50
179.3905740328811476
 51
181.2844785869006614
  0
LWPOLYLINE
  5
69
100
AcDbEntity
  8
0
 62
256
370
-1
 48
1.0
  6
BYLAYER
100
AcDbPolyline
 90
3
 70
128
 10
0.1690070000000219
 20
-30.5823099999999783
 10
0.1831370000000163
 20
-25.039499999999979
 10
0.3579780000000171
 20
-24.9624999999999808
  0
ARC
  5
6A
100
AcDbEntity
  8
0
 62
256
370
-1
 48
1.0
  6
BYLAYER
100
AcDbCircle
 10
0.1435483268423072
 20
-24.4852949613728619
 30
0.0
 40
0.5231679783985569
100
AcDbArc
 50
294.1965262518820055
 51
329.3604381750441235
  0
ARC
  5
6B
100
AcDbEntity
  8
0
 62
256
370
-1
 48
1.0
  6
BYLAYER
100
AcDbCircle
 10
-16.7013843362327066
 20
-23.2989633027942631
 30
0.0
 40
17.3559854167951784
100
AcDbArc
 50
355.1978623313329422
 51
4.4924777570161867
  0
ARC
  5
6C
100
AcDbEntity
  8
0
 62
256
370
-1
 48
1.0
  6
BYLAYER
100
AcDbCircle
 10
-0.078176601214322
 20
-22.3312355948757855
 30
0.0
 40
0.7842920199108361
100
AcDbArc
 50
29.9653852016715376
 51
59.1515547582456804
  0
LWPOLYLINE
  5
6D
100
AcDbEntity
  8
0
 62
256
370
-1
 48
1.0
  6
BYLAYER
100
AcDbPolyline
 90
5
 70
128
 10
0.32398400000001
 20
-21.6578999999999837
 10
0.0999960000000044
 20
-21.5164999999999793
 10
0.0999960000000044
 20
-18.6082199999999887
 10
0.0999960000000044
 20
-15.699939999999998
 10
0.3448160000000087
 20
-15.5916499999999871
  0
ARC
  5
6E
100
AcDbEntity
  8
0
 62
256
370
-1
 48
1.0
  6
BYLAYER
100
AcDbCircle
 10
0.0864889514062157
 20
-14.9184614799317607
 30
0.0
 40
0.7210517648455113
100
AcDbArc
 50
290.9936340780285491
 51
320.0896278338375964
  0
ARC
  5
6F
100
AcDbEntity
  8
0
 62
256
370
-1
 48
1.0
  6
BYLAYER
100
AcDbCircle
 10
-45.5624628324291265
 20
-13.8191117586832952
 30
0.0
 40
46.2284292945348483
100
AcDbArc
 50
358.0637190941035897
 51
3.7973957899965121
  0
ARC
  5
70
100
AcDbEntity
  8
0
 62
256
370
-1
 48
1.0
  6
BYLAYER
100
AcDbCircle
 10
-0.0030975347850361
 20
-11.5633126342072821
 30
0.0
 40
0.9856553113457993
100
AcDbArc
 50
54.8423185757036862
 51
72.8723787866219652
  0
LWPOLYLINE
  5
71
100
AcDbEntity
  8
0
 62
256
370
-1
 48
1.0
  6
BYLAYER
100
AcDbPolyline
 90
3
 70
128
 10
0.2871789999999947
 20
-10.6213699999999847
 10
0.0722659999999991
 20
-10.547569999999979
 10
0.0306159999999949
 20
-8.226949999999988
  0
ARC
  5
72
100
AcDbEntity
  8
0
 62
256
370
-1
 48
1.0
  6
BYLAYER
100
AcDbCircle
 10
90.0498312850204883
 20
-6.1559932912940738
 30
0.0
 40
90.0430340571673753
100
AcDbArc
 50
178.3587730275359604
 51
181.3178980913037321
  0
ARC
  5
73
100
AcDbEntity
  8
0
 62
256
370
-1
 48
1.0
  6
BYLAYER
100
AcDbCircle
 10
-7.6194653752398374
 20
-3.6688008247611585
 30
0.0
 40
7.6637502586640007
100
AcDbArc
 50
0.6857401975930656
 51
5.2080729260298044
  0
ARC
  5
74
100
AcDbEntity
  8
0
 62
256
370
-1
 48
1.0
  6
BYLAYER
100
AcDbCircle
 10
1.1278864884227471
 20
-2.7049491711649933
 30
0.0
 40
1.1470342922897463
100
AcDbArc
 50
136.3204923786782388
 51
193.5216275505311501
  0
LWPOLYLINE
  5
75
100
AcDbEntity
  8
0
 62
256
370
-1
 48
1.0
  6
BYLAYER
100
AcDbPolyline
 90
5
 70
128
 10
0.2983349999999945
 20
-1.9127799999999981
 10
0.4919009999999986
 20
-1.7192100000000041
 10
10.0484440000000035
 20
-1.7192100000000041
 10
19.6049880000000059
 20
-1.7192100000000041
 10
19.7934290000000033
 20
-1.5836100000000075
  0
ARC
  5
76
100
AcDbEntity
  8
0
 62
256
370
-1
 48
1.0
  6
BYLAYER
100
AcDbCircle
 10
22.0465292440813627
 20
-4.9532381073851024
 30
0.0
 40
4.05349901837402
100
AcDbArc
 50
108.4982580576713076
 51
123.7686483586227695
  0
ARC
  5
77
100
AcDbEntity
  8
0
 62
256
370
-1
 48
1.0
  6
BYLAYER
100
AcDbCircle
 10
20.5552898599101397
 20
-0.1329494763155564
 30
0.0
 40
0.9975459962272397
100
AcDbArc
 50
281.8685384340534483
 51
299.5814665213518992
  0
ARC
  5
78
100
AcDbEntity
  8
0
 62
256
370
-1
 48
1.0
  6
BYLAYER
100
AcDbCircle
 10
22.2925089347395478
 20
-3.9447445471228955
 30
0.0
 40
3.1965926858558582
100
AcDbArc
 50
100.6621225471495933
 51
112.9174966201447887
  0
ARC
  5
79
100
AcDbEntity
  8
0
 62
256
370
-1
 48
1.0
  6
BYLAYER
100
AcDbCircle
 10
19.4922470626504847
 20
9.521264095483378
 30
0.0
 40
10.5582391885175042
100
AcDbArc
 50
282.0757756602882296
 51
287.3675520317204928
  0
ARC
  5
7A
100
AcDbEntity
  8
0
 62
256
370
-1
 48
1.0
  6
BYLAYER
100
AcDbCircle
 10
26.7115321414242892
 20
-14.8664089718438035
 30
0.0
 40
14.8776488150440969
100
AcDbArc
 50
87.7727039298589773
 51
105.8670794607094052
  0
ARC
  5
7B
100
AcDbEntity
  8
0
 62
256
370
-1
 48
1.0
  6
BYLAYER
100
AcDbCircle
 10
27.9864193987961194
 20
-17.2869063347546899
 30
0.0
 40
17.3009392744471455
100
AcDbArc
 50
75.3428108607338771
 51
92.3078441542033801
  0
ARC
  5
7C
100
AcDbEntity
  8
0
 62
256
370
-1
 48
1.0
  6
BYLAYER
100
AcDbCircle
 10
46.3331428606418001
 20
44.6121082497939696
 30
0.0
 40
47.2721602806413443
100
AcDbArc
 50
252.8124088843831316
 51
253.9858087409950826
  0
ARC
  5
7D
100
AcDbEntity
  8
0
 62
256
370
-1
 48
1.0
  6
BYLAYER
100
AcDbCircle
 10
26.2117549290562835
 20
-24.0580006520065979
 30
0.0
 40
24.2873225362938818
100
AcDbArc
 50
69.0387526132749514
 51
73.0512196398281617
  0
ARC
  5
7E
100
AcDbEntity
  8
0
 62
256
370
-1
 48
1.0
  6
BYLAYER
100
AcDbCircle
 10
33.7714053162913714
 20
-4.3083648508572336
 30
0.0
 40
3.1403093000784255
100
AcDbArc
 50
62.4556389539399675
 51
68.9330788195636046
  0
ARC
  5
7F
100
AcDbEntity
  8
0
 62
256
370
-1
 48
1.0
  6
BYLAYER
100
AcDbCircle
 10
35.574373773536216
 20
-0.8558891418468074
 30
0.0
 40
0.754597817877679
100
AcDbArc
 50
242.2991441246100237
 51
265.6367992559942763
  0
ARC
  5
80
100
AcDbEntity
  8
0
 62
256
370
-1
 48
1.0
  6
BYLAYER
100
AcDbCircle
 10
35.3724359445993741
 20
-2.6471973119885295
 30
0.0
 40
1.0489024133407212
100
AcDbArc
 50
60.6332926834062391
 51
82.0799731435147635
  0
LWPOLYLINE
  5
81
100
AcDbEntity
  8
0
 62
256
370
-1
 48
1.0
  6
BYLAYER
100
AcDbPolyline
 90
3
 70
128
 10
35.8868150000000128
 20
-1.7330800000000013
 10
36.1203050000000161
 20
-1.8578600000000023
 10
45.2920350000000127
 20
-1.8678600000000076
  0
ARC
  5
82
100
AcDbEntity
  8
0
 62
256
370
-1
 48
1.0
  6
BYLAYER
100
AcDbCircle
 10
46.8314450653460383
 20
-698.6595290031298191
 30
0.0
 40
696.7933694973828551
100
AcDbArc
 50
89.3619830345250961
 51
90.126582391992045
  0
ARC
  5
83
100
AcDbEntity
  8
0
 62
256
370
-1
 48
1.0
  6
BYLAYER
100
AcDbCircle
 10
54.23677981108127
 20
-2.6377037388777822
 30
0.0
 40
0.8096601272187164
100
AcDbArc
 50
36.0557784741943834
 51
64.1012431331193966
  0
LWPOLYLINE
  5
84
100
AcDbEntity
  8
0
 62
256
370
-1
 48
1.0
  6
BYLAYER
100
AcDbPolyline
 90
3
 70
128
 10
54.8913450000000012
 20
-2.1611600000000095
 10
55.065595000000009
 20
-2.3811800000000147
 10
55.0990950000000055
 20
-5.4295900000000188
  0
ARC
  5
85
100
AcDbEntity
  8
0
 62
256
370
-1
 48
1.0
  6
BYLAYER
100
AcDbCircle
 10
37.7431765498240281
 20
-6.774185749105154
 30
0.0
 40
17.4079247177160852
100
AcDbArc
 50
353.9578333524939353
 51
4.4299635609351125
  0
ARC
  5
86
100
AcDbEntity
  8
0
 62
256
370
-1
 48
1.0
  6
BYLAYER
100
AcDbCircle
 10
1624.5039486633259003
 20
-26.9732995035154772
 30
0.0
 40
1569.5570199840904024
100
AcDbArc
 50
179.3295170326728964
 51
180.4790747323243068
  0
ARC
  5
87
100
AcDbEntity
  8
0
 62
256
370
-1
 48
1.0
  6
BYLAYER
100
AcDbCircle
 10
-202.1359442880383313
 20
-41.0354105546830539
 30
0.0
 40
257.1394520235950267
100
AcDbArc
 50
358.4099428299388137
 51
0.209121493167628
  0
ARC
  5
88
100
AcDbEntity
  8
0
 62
256
370
-1
 48
1.0
  6
BYLAYER
100
AcDbCircle
 10
59.5019526436801627
 20
-54.9780368849167118
 30
0.0
 40
8.2145211865396046
100
AcDbArc
 50
124.0332869208175168
 51
126.2183684441384202
  0
ARC
  5
89
100
AcDbEntity
  8
0
 62
256
370
-1
 48
1.0
  6
BYLAYER
100
AcDbCircle
 10
54.0872158889240637
 20
-47.6379441229539111
 30
0.0
 40
0.907172557368604
100
AcDbArc
 50
258.3975165870205046
 51
308.2053033952309988
  0
ARC
  5
8A
100
AcDbEntity
  8
0
 62
256
370
-1
 48
1.0
  6
BYLAYER
100
AcDbCircle
 10
53.7631563056543342
 20
-50.1420731600607041
 30
0.0
 40
1.6216877543217483
100
AcDbArc
 50
84.9904491859194593
 51
116.672959876666738
  0
LWPOLYLINE
  5
8B
100
AcDbEntity
  8
0
 62
256
370
-1
 48
1.0
  6
BYLAYER
100
AcDbPolyline
 90
7
 70
128
 10
53.0351849999999914
 20
-48.6929600000000278
 10
52.6643649999999752
 20
-48.8593300000000283
 10
50.269964999999992
 20
-48.8593300000000283
 10
47.8755649999999804
 20
-48.8593300000000283
 10
47.6547249999999849
 20
-48.7068200000000218
 10
47.4338749999999862
 20
-48.5543100000000223
 10
46.2235849999999857
 20
-48.5374100000000297
  0
ARC
  5
8C
100
AcDbEntity
  8
0
 62
256
370
-1
 48
1.0
  6
BYLAYER
100
AcDbCircle
 10
45.7175348581710779
 20
-52.7540461765952244
 30
0.0
 40
4.2468938521955444
100
AcDbArc
 50
83.1565059213782973
 51
102.9585566740455533
  0
ARC
  5
8D
100
AcDbEntity
  8
0
 62
256
370
-1
 48
1.0
  6
BYLAYER
100
AcDbCircle
 10
44.9802163776931963
 20
-49.2805554101854355
 30
0.0
 40
0.6991351437064128
100
AcDbArc
 50
107.912708877241684
 51
137.5637092611423498
  0
ARC
  5
8E
100
AcDbEntity
  8
0
 62
256
370
-1
 48
1.0
  6
BYLAYER
100
AcDbCircle
 10
46.5157240414999436
 20
-49.2855880649682305
 30
0.0
 40
2.1061657452086995
100
AcDbArc
 50
166.9161198128071248
 51
182.4189197883164013
  0
ARC
  5
8F
100
AcDbEntity
  8
0
 62
256
370
-1
 48
1.0
  6
BYLAYER
100
AcDbCircle
 10
43.7323153807344056
 20
-49.5458946227409314
 30
0.0
 40
0.700418753433145
100
AcDbArc
 50
320.8432445726396622
 51
14.1659744163678489
  0
LWPOLYLINE
  5
90
100
AcDbEntity
  8
0
 62
256
370
-1
 48
1.0
  6
BYLAYER
100
AcDbPolyline
 90
5
 70
128
 10
44.2754349999999874
 20
-49.9881699999999967
 10
44.1394449999999878
 20
-50.1349199999999939
 10
27.6426850000000002
 20
-50.1349199999999939
 10
11.1460599999999914
 20
-50.1349199999999939
 10
11.0024839999999973
 20
-49.9638500000000079
  0
ARC
  5
91
100
AcDbEntity
  8
0
 62
256
370
-1
 48
1.0
  6
BYLAYER
100
AcDbCircle
 10
43.588167873686217
 20
-49.5276174070163222
 30
0.0
 40
0.732399138630989
100
AcDbArc
 50
326.5099042944198686
 51
13.4784575059193887
  0
ARC
  5
92
100
AcDbEntity
  8
0
 62
256
370
-1
 48
1.0
  6
BYLAYER
100
AcDbCircle
 10
44.9403523453183666
 20
-49.1524871204740919
 30
0.0
 40
0.6718140497939983
100
AcDbArc
 50
105.1297495126157031
 51
197.7151477265041706
  0
ARC
  5
93
100
AcDbEntity
  8
0
 62
256
370
-1
 48
1.0
  6
BYLAYER
100
AcDbCircle
 10
45.7172600736884434
 20
-52.6402718738723152
 30
0.0
 40
4.2445100592768679
100
AcDbArc
 50
83.1499958421374004
 51
102.9646482780660932
  0
LWPOLYLINE
  5
94
100
AcDbEntity
  8
0
 62
256
370
-1
 48
1.0
  6
BYLAYER
100
AcDbPolyline
 90
7
 70
128
 10
46.2235049999999887
 20
-48.4260600000000068
 10
47.4337949999999893
 20
-48.4429599999999994
 10
47.654644999999995
 20
-48.5954700000000059
 10
47.8754849999999905
 20
-48.7479900000000228
 10
50.2698849999999879
 20
-48.7479900000000228
 10
52.6642849999999783
 20
-48.7479900000000228
 10
53.0351049999999873
 20
-48.5816100000000191
  0
ARC
  5
95
100
AcDbEntity
  8
0
 62
256
370
-1
 48
1.0
  6
BYLAYER
100
AcDbCircle
 10
53.7673146591412348
 20
-50.0432863384544575
 30
0.0
 40
1.6348176361103106
100
AcDbArc
 50
84.7872392262795529
 51
116.6080435058891993
  0
ARC
  5
96
100
AcDbEntity
  8
0
 62
256
370
-1
 48
1.0
  6
BYLAYER
100
AcDbCircle
 10
54.1092318656361897
 20
-47.6448720165211697
 30
0.0
 40
0.7942606011317521
100
AcDbArc
 50
255.9079538624517056
 51
309.811194928594773
  0
LWPOLYLINE
  5
97
100
AcDbEntity
  8
0
 62
256
370
-1
 48
1.0
  6
BYLAYER
100
AcDbPolyline
 90
3
 70
128
 10
54.6177649999999915
 20
-48.2549900000000207
 10
54.809775000000009
 20
-48.0947500000000332
 10
54.8527750000000154
 20
-45.8009500000000287
  0
ARC
  5
98
100
AcDbEntity
  8
0
 62
256
370
-1
 48
1.0
  6
BYLAYER
100
AcDbCircle
 10
-297.7707106757528663
 20
-40.6181520399673275
 30
0.0
 40
352.6615715453165194
100
AcDbArc
 50
359.1579373443381655
 51
0.0847576413450365
  0
ARC
  5
99
100
AcDbEntity
  8
0
 62
256
370
-1
 48
1.0
  6
BYLAYER
100
AcDbCircle
 10
1591.0411333231086246
 20
-26.9269690721164565
 30
0.0
 40
1536.2071086145317622
100
AcDbArc
 50
179.316676084243511
 51
180.4911873450201654
  0
ARC
  5
9A
100
AcDbEntity
  8
0
 62
256
370
-1
 48
1.0
  6
BYLAYER
100
AcDbCircle
 10
37.9809596738776705
 20
-6.7920496987580634
 30
0.0
 40
17.0590538665368818
100
AcDbArc
 50
353.8952853019953295
 51
4.4505498195976676
  0
ARC
  5
9B
100
AcDbEntity
  8
0
 62
256
370
-1
 48
1.0
  6
BYLAYER
100
AcDbCircle
 10
45.6093489457316466
 20
-4.3049939501883543
 30
0.0
 40
9.451091951545795
100
AcDbArc
 50
352.9297683432096733
 51
12.5273436286128987
  0
ARC
  5
9C
100
AcDbEntity
  8
0
 62
256
370
-1
 48
1.0
  6
BYLAYER
100
AcDbCircle
 10
54.3503749071692113
 20
-2.5156744812246123
 30
0.0
 40
0.5506673032046955
100
AcDbArc
 50
28.2538762520644617
 51
64.2690251127775127
  0
ARC
  5
9D
100
AcDbEntity
  8
0
 62
256
370
-1
 48
1.0
  6
BYLAYER
100
AcDbCircle
 10
46.7944381531973761
 20
-712.0079446493173236
 30
0.0
 40
710.031124296571079
100
AcDbArc
 50
89.3709712851698441
 51
90.1212409693742273
  0
LWPOLYLINE
  5
9E
100
AcDbEntity
  8
0
 62
256
370
-1
 48
1.0
  6
BYLAYER
100
AcDbPolyline
 90
3
 70
128
 10
45.2919749999999794
 20
-1.9784100000000251
 10
36.1202449999999828
 20
-1.9684100000000202
 10
35.8867549999999795
 20
-1.8436300000000188
  0
ARC
  5
9F
100
AcDbEntity
  8
0
 62
256
370
-1
 48
1.0
  6
BYLAYER
100
AcDbCircle
 10
35.3688222049427665
 20
-2.8199638305561114
 30
0.0
 40
1.1052068262927557
100
AcDbArc
 50
62.0546128640095134
 51
85.0734929689934773
  0
ARC
  5
A0
100
AcDbEntity
  8
0
 62
256
370
-1
 48
1.0
  6
BYLAYER
100
AcDbCircle
 10
35.446510731580851
 20
-1.3290052649333519
 30
0.0
 40
0.3902150638905031
100
AcDbArc
 50
231.7956165341963697
 51
272.5298834591873742
  0
ARC
  5
A1
100
AcDbEntity
  8
0
 62
256
370
-1
 48
1.0
  6
BYLAYER
100
AcDbCircle
 10
35.0227257407155861
 20
-1.7660118207253326
 30
0.0
 40
0.2242421544952212
100
AcDbArc
 50
35.5482651231504789
 51
72.2538009360526843
  0
ARC
  5
A2
100
AcDbEntity
  8
0
 62
256
370
-1
 48
1.0
  6
BYLAYER
100
AcDbCircle
 10
35.2704765150775756
 20
-0.6254622892955796
 30
0.0
 40
0.9441782563451385
100
AcDbArc
 50
246.2289919699873053
 51
259.0467431851117794
  0
ARC
  5
A3
100
AcDbEntity
  8
0
 62
256
370
-1
 48
1.0
  6
BYLAYER
100
AcDbCircle
 10
26.7783820486299362
 20
-22.3262460826371942
 30
0.0
 40
22.3598963041972425
100
AcDbArc
 50
68.7295542656410703
 51
73.0641046644214356
  0
ARC
  5
A4
100
AcDbEntity
  8
0
 62
256
370
-1
 48
1.0
  6
BYLAYER
100
AcDbCircle
 10
46.2938344689677521
 20
44.3699696168878148
 30
0.0
 40
47.1347928379712684
100
AcDbArc
 50
252.8106989734402248
 51
253.9875186519382169
  0
ARC
  5
A5
100
AcDbEntity
  8
0
 62
256
370
-1
 48
1.0
  6
BYLAYER
100
AcDbCircle
 10
27.9863967880007749
 20
-17.3970507384745936
 30
0.0
 40
17.3005954641696178
100
AcDbArc
 50
75.3426410473456372
 51
92.3080139675917195
  0
ARC
  5
A6
100
AcDbEntity
  8
0
 62
256
370
-1
 48
1.0
  6
BYLAYER
100
AcDbCircle
 10
26.7114721414241707
 20
-14.9768989718431982
 30
0.0
 40
14.8776488150434911
100
AcDbArc
 50
87.7727039298584799
 51
105.867079460709661
  0
ARC
  5
A7
100
AcDbEntity
  8
0
 62
256
370
-1
 48
1.0
  6
BYLAYER
100
AcDbCircle
 10
19.4878517684401729
 20
9.4272738346303893
 30
0.0
 40
10.575280812890993
100
AcDbArc
 50
282.0800424249667344
 51
287.36328526704159
  0
ARC
  5
A8
100
AcDbEntity
  8
0
 62
256
370
-1
 48
1.0
  6
BYLAYER
100
AcDbCircle
 10
22.2918822611290004
 20
-4.0533438032419111
 30
0.0
 40
3.1946297475255774
100
AcDbArc
 50
100.6584087325519192
 51
112.9213074434067323
  0
ARC
  5
A9
100
AcDbEntity
  8
0
 62
256
370
-1
 48
1.0
  6
BYLAYER
100
AcDbCircle
 10
20.5612885341057172
 20
-0.2519388967562068
 30
0.0
 40
0.9871650757076549
100
AcDbArc
 50
281.3907068798930595
 51
299.519282481928542
  0
ARC
  5
AA
100
AcDbEntity
  8
0
 62
256
370
-1
 48
1.0
  6
BYLAYER
100
AcDbCircle
 10
21.7369183748877646
 20
-4.327967165513666
 30
0.0
 40
3.2593373519810882
100
AcDbArc
 50
107.5104094452196506
 51
124.8614059199205855
  0
LWPOLYLINE
  5
AB
100
AcDbEntity
  8
0
 62
256
370
-1
 48
1.0
  6
BYLAYER
100
AcDbPolyline
 90
5
 70
128
 10
19.8739029999999843
 20
-1.6535599999999988
 10
19.5996169999999807
 20
-1.8297000000000028
 10
10.0543389999999846
 20
-1.8297000000000028
 10
0.5090599999999768
 20
-1.8297000000000028
 10
0.3815739999999721
 20
-1.9484700000000004
  0
ARC
  5
AC
100
AcDbEntity
  8
0
 62
256
370
-1
 48
1.0
  6
BYLAYER
100
AcDbCircle
 10
1.1276361284594449
 20
-2.672371912161728
 30
0.0
 40
1.0395396471289025
100
AcDbArc
 50
135.863688266796629
 51
156.1300688495192048
  0
ARC
  5
AD
100
AcDbEntity
  8
0
 62
256
370
-1
 48
1.0
  6
BYLAYER
100
AcDbCircle
 10
2.4893264854961741
 20
-2.8451915436494533
 30
0.0
 40
2.387261741512245
100
AcDbArc
 50
165.605112106475076
 51
192.9295973586556272
  0
ARC
  5
AE
100
AcDbEntity
  8
0
 62
256
370
-1
 48
1.0
  6
BYLAYER
100
AcDbCircle
 10
-0.3281392150549037
 20
-3.5660629951262668
 30
0.0
 40
0.5250513003300282
100
AcDbArc
 50
337.1453665075890171
 51
20.8307763768321195
  0
ARC
  5
AF
100
AcDbEntity
  8
0
 62
256
370
-1
 48
1.0
  6
BYLAYER
100
AcDbCircle
 10
27.378052575885782
 20
-5.7107120435875247
 30
0.0
 40
27.2914513607101554
100
AcDbArc
 50
175.9221988775611862
 51
183.1643350610520145
  0
LWPOLYLINE
  5
B0
100
AcDbEntity
  8
0
 62
256
370
-1
 48
1.0
  6
BYLAYER
100
AcDbPolyline
 90
3
 70
128
 10
0.1282119999999765
 20
-7.2172000000000205
 10
0.1703419999999767
 20
-10.4535000000000196
 10
0.398590999999982
 20
-10.5644200000000126
  0
ARC
  5
B1
100
AcDbEntity
  8
0
 62
256
370
-1
 48
1.0
  6
BYLAYER
100
AcDbCircle
 10
0.1016350257606612
 20
-11.2098491040575361
 30
0.0
 40
0.7104657479435041
100
AcDbArc
 50
33.862145279486576
 51
65.2932774089916137
  0
ARC
  5
B2
100
AcDbEntity
  8
0
 62
256
370
-1
 48
1.0
  6
BYLAYER
100
AcDbCircle
 10
-16.592435143785405
 20
-12.588281831666615
 30
0.0
 40
17.374859461214804
100
AcDbArc
 50
358.1331207661946792
 51
5.8612002487976227
  0
LWPOLYLINE
  5
B3
100
AcDbEntity
  8
0
 62
256
370
-1
 48
1.0
  6
BYLAYER
100
AcDbPolyline
 90
3
 70
128
 10
0.7732019999999835
 20
-13.1543100000000113
 10
0.7900619999999776
 20
-15.356000000000023
 10
0.6613789999999824
 20
-15.4929800000000188
  0
ARC
  5
B4
100
AcDbEntity
  8
0
 62
256
370
-1
 48
1.0
  6
BYLAYER
100
AcDbCircle
 10
-0.0535247418211044
 20
-14.7839976546677772
 30
0.0
 40
1.0068482140137094
100
AcDbArc
 50
294.9881522905891984
 51
315.2382698130987251
  0
LWPOLYLINE
  5
B5
100
AcDbEntity
  8
0
 62
256
370
-1
 48
1.0
  6
BYLAYER
100
AcDbPolyline
 90
3
 70
128
 10
0.3717989999999816
 20
-15.6966000000000179
 10
0.2109019999999759
 20
-15.7632000000000119
 10
0.2109019999999759
 20
-18.6365700000000061
  0
ARC
  5
B6
100
AcDbEntity
  8
0
 62
256
370
-1
 48
1.0
  6
BYLAYER
100
AcDbCircle
 10
7.8689732295848085
 20
-19.8244610396000276
 30
0.0
 40
7.7496541909531
100
AcDbArc
 50
171.1827646009326998
 51
192.8050397675849013
  0
ARC
  5
B7
100
AcDbEntity
  8
0
 62
256
370
-1
 48
1.0
  6
BYLAYER
100
AcDbCircle
 10
-0.1003184419451149
 20
-22.3544670991594003
 30
0.0
 40
0.9110831871362225
100
AcDbArc
 50
42.1188763323634774
 51
63.0882380865241359
  0
LWPOLYLINE
  5
B8
100
AcDbEntity
  8
0
 62
256
370
-1
 48
1.0
  6
BYLAYER
100
AcDbPolyline
 90
3
 70
128
 10
0.5754819999999796
 20
-21.7434300000000178
 10
0.7377579999999853
 20
-21.9127100000000041
 10
0.7529379999999862
 20
-23.2817699999999981
  0
ARC
  5
B9
100
AcDbEntity
  8
0
 62
256
370
-1
 48
1.0
  6
BYLAYER
100
AcDbCircle
 10
-2.3182844739299027
 20
-23.8694533487703637
 30
0.0
 40
3.1269440677431311
100
AcDbArc
 50
342.118489944731266
 51
10.8326915466850267
  0
ARC
  5
BA
100
AcDbEntity
  8
0
 62
256
370
-1
 48
1.0
  6
BYLAYER
100
AcDbCircle
 10
0.2097063354714163
 20
-24.5577852916889086
 30
0.0
 40
0.5239162762821612
100
AcDbArc
 50
291.8394642983939207
 51
328.7498778794384862
  0
LWPOLYLINE
  5
BB
100
AcDbEntity
  8
0
 62
256
370
-1
 48
1.0
  6
BYLAYER
100
AcDbPolyline
 90
3
 70
128
 10
0.4046069999999844
 20
-25.044099999999986
 10
0.2621139999999826
 20
-25.0798999999999808
 10
0.2659139999999809
 20
-30.9935499999999742
  0
ARC
  5
BC
100
AcDbEntity
  8
0
 62
256
370
-1
 48
1.0
  6
BYLAYER
100
AcDbCircle
 10
-10357.9154673954544705
 20
-36.5876469741180372
 30
0.0
 40
10358.1828919848885562
100
AcDbArc
 50
359.9666794618293011
 51
0.0309434739475701
  0
ARC
  5
BD
100
AcDbEntity
  8
0
 62
256
370
-1
 48
1.0
  6
BYLAYER
100
AcDbCircle
 10
33.0564246553521528
 20
-45.0067805289037963
 30
0.0
 40
32.8781212776330705
100
AcDbArc
 50
175.8220755394830803
 51
186.1302619469125545
  0
LWPOLYLINE
  5
BE
100
AcDbEntity
  8
0
 62
256
370
-1
 48
1.0
  6
BYLAYER
100
AcDbPolyline
 90
3
 70
128
 10
0.3663109999999819
 20
-48.5178099999999688
 10
0.4709939999999762
 20
-48.7198699999999647
 10
1.2517799999999824
 20
-48.7475699999999676
  0
ARC
  5
BF
100
AcDbEntity
  8
0
 62
256
370
-1
 48
1.0
  6
BYLAYER
100
AcDbCircle
 10
1.5146371286425997
 20
-49.9817049782689082
 30
0.0
 40
1.2618173459994575
100
AcDbArc
 50
58.9002037808914949
 51
102.0237017141031544
  0
LWPOLYLINE
  5
C0
100
AcDbEntity
  8
0
 62
256
370
-1
 48
1.0
  6
BYLAYER
100
AcDbPolyline
 90
3
 70
128
 10
2.1664039999999858
 20
-48.9012499999999761
 10
2.3002439999999922
 20
-49.027199999999965
 10
4.6801369999999878
 20
-49.0073999999999614
  0
ARC
  5
C1
100
AcDbEntity
  8
0
 62
256
370
-1
 48
1.0
  6
BYLAYER
100
AcDbCircle
 10
5.6443208447154394
 20
-40.7470778329199277
 30
0.0
 40
8.3164038376190028
100
AcDbArc
 50
263.3422930701100313
 51
283.8090282964049038
  0
ARC
  5
C2
100
AcDbEntity
  8
0
 62
256
370
-1
 48
1.0
  6
BYLAYER
100
AcDbCircle
 10
9.4960679545027222
 20
-57.823652268259913
 30
0.0
 40
9.1920866390405305
100
AcDbArc
 50
87.7266859035596553
 51
101.7171589414406725
  0
SPLINE
  5
C3
100
AcDbEntity
  8
0
 62
256
370
-1
 48
1.0
  6
BYLAYER
100
AcDbSpline
 70
8
 71
3
 72
8
 73
4
 74
0
 40
0.0
 40
0.0
 40
0.0
 40
0.0
 40
1.0
 40
1.0
 40
1.0
 40
1.0
 10
9.8606849999999895
 20
-48.6387999999999465
 30
0.0
 10
10.8955719999999872
 20
-48.6392299999999409
 30
0.0
 10
10.9099479999999875
 20
-48.6477999999999327
 30
0.0
 10
10.9328819999999922
 20
-49.2833099999999433
 30
0.0
  0
ARC
  5
C4
100
AcDbEntity
  8
0
 62
256
370
-1
 48
1.0
  6
BYLAYER
100
AcDbCircle
 10
12.2063844967802702
 20
-49.3535179160773296
 30
0.0
 40
1.275436302127833
100
AcDbArc
 50
176.8444903710718279
 51
204.3015640654104175
  0
LWPOLYLINE
  5
C5
100
AcDbEntity
  8
0
 62
256
370
-1
 48
1.0
  6
BYLAYER
100
AcDbPolyline
 90
3
 70
128
 10
11.0439619999999934
 20
-49.8784099999999526
 10
11.1387919999999951
 20
-50.0231299999999521
 10
27.6181950000000001
 20
-50.0231299999999521
  0
ARC
  5
C6
100
AcDbEntity
  8
0
 62
256
370
-1
 48
1.0
  6
BYLAYER
100
AcDbCircle
 10
34.3161660676118672
 20
237.6474246670747164
 30
0.0
 40
287.7485201332683005
100
AcDbArc
 50
268.666195963494431
 51
271.9682357254016551
  0
LWPOLYLINE
  5
C7
100
AcDbEntity
  8
0
 62
256
370
-1
 48
1.0
  6
BYLAYER
100
AcDbPolyline
 90
2
 70
128
 10
44.1990150000000099
 20
-49.9313299999999458
 10
44.1989749999999901
 20
-49.931750000000001
  0
ARC
  5
C8
100
AcDbEntity
  8
0
 62
256
370
-1
 48
1.0
  6
BYLAYER
100
AcDbCircle
 10
15.3037910593338449
 20
-47.1546808281990053
 30
0.0
 40
0.729578612815843
100
AcDbArc
 50
178.0660926595816704
 51
244.1469748565062048
  0
ARC
  5
C9
100
AcDbEntity
  8
0
 62
256
370
-1
 48
1.0
  6
BYLAYER
100
AcDbCircle
 10
15.137592795105526
 20
-47.0729765986131241
 30
0.0
 40
0.5658514604046705
100
AcDbArc
 50
127.5820157695756052
 51
185.7898781797254628
  0
ARC
  5
CA
100
AcDbEntity
  8
0
 62
256
370
-1
 48
1.0
  6
BYLAYER
100
AcDbCircle
 10
15.2274165847659404
 20
-46.8950316119593751
 30
0.0
 40
0.5121800420102852
100
AcDbArc
 50
79.7661101263286554
 51
148.1229188820699392
  0
ARC
  5
CB
100
AcDbEntity
  8
0
 62
256
370
-1
 48
1.0
  6
BYLAYER
100
AcDbCircle
 10
15.4083277228104905
 20
-46.9124400556187666
 30
0.0
 40
0.5291353410549613
100
AcDbArc
 50
36.1878872938636889
 51
99.7835023783696329
  0
ARC
  5
CC
100
AcDbEntity
  8
0
 62
256
370
-1
 48
1.0
  6
BYLAYER
100
AcDbCircle
 10
15.5177605491337562
 20
-47.0310971240521809
 30
0.0
 40
0.5354556738602931
100
AcDbArc
 50
348.4508374175451308
 51
53.6166237436998472
  0
ARC
  5
CD
100
AcDbEntity
  8
0
 62
256
370
-1
 48
1.0
  6
BYLAYER
100
AcDbCircle
 10
15.4889045027989329
 20
-47.2349702175165547
 30
0.0
 40
0.5618493768143853
100
AcDbArc
 50
317.5884809442700316
 51
9.9074492470868929
  0
ARC
  5
CE
100
AcDbEntity
  8
0
 62
256
370
-1
 48
1.0
  6
BYLAYER
100
AcDbCircle
 10
15.3370647305720897
 20
-47.2118536810917533
 30
0.0
 40
0.6948076552689352
100
AcDbArc
 50
239.6171507283889923
 51
324.6437598192825931
  0
LWPOLYLINE
  5
CF
100
AcDbEntity
  8
0
 62
256
370
-1
 48
1.0
  6
BYLAYER
100
AcDbPolyline
 90
2
 70
128
 10
14.9856480000000136
 20
-47.8112399999999766
 10
14.9856479999999976
 20
-47.811239999999998
  0
ARC
  5
D0
100
AcDbEntity
  8
0
 62
256
370
-1
 48
1.0
  6
BYLAYER
100
AcDbCircle
 10
15.2803973017985317
 20
-47.1293367534456706
 30
0.0
 40
0.6844065814073529
100
AcDbArc
 50
306.4594020027376473
 51
40.7006972342203781
  0
ARC
  5
D1
100
AcDbEntity
  8
0
 62
256
370
-1
 48
1.0
  6
BYLAYER
100
AcDbCircle
 10
15.4246264189583133
 20
-46.9516211580722924
 30
0.0
 40
0.4609712868752051
100
AcDbArc
 50
35.6381001704529794
 51
102.6956210857388925
  0
ARC
  5
D2
100
AcDbEntity
  8
0
 62
256
370
-1
 48
1.0
  6
BYLAYER
100
AcDbCircle
 10
15.2220386485882635
 20
-46.9516996145333962
 30
0.0
 40
0.4610414392136382
100
AcDbArc
 50
77.3100457640600638
 51
144.3561529504225973
  0
ARC
  5
D3
100
AcDbEntity
  8
0
 62
256
370
-1
 48
1.0
  6
BYLAYER
100
AcDbCircle
 10
15.2185058223226655
 20
-47.0685243872308163
 30
0.0
 40
0.5351139868541365
100
AcDbArc
 50
133.912751849769279
 51
185.1416063035683237
  0
ARC
  5
D4
100
AcDbEntity
  8
0
 62
256
370
-1
 48
1.0
  6
BYLAYER
100
AcDbCircle
 10
15.2326606928743971
 20
-47.2038268456303101
 30
0.0
 40
0.5540442697393502
100
AcDbArc
 50
170.9292949572238172
 51
242.8967882254442543
  0
ARC
  5
D5
100
AcDbEntity
  8
0
 62
256
370
-1
 48
1.0
  6
BYLAYER
100
AcDbCircle
 10
15.3213394912788452
 20
-47.1814991505993504
 30
0.0
 40
0.6181587477634308
100
AcDbArc
 50
236.5095790113828969
 51
306.2781957196726239
  0
LWPOLYLINE
  5
D6
100
AcDbEntity
  8
0
 62
256
370
-1
 48
1.0
  6
BYLAYER
100
AcDbPolyline
 90
2
 70
128
 10
15.6871079999999967
 20
-47.6798299999999813
 10
15.6871079999999967
 20
-47.679789999999997
  0
ARC
  5
D7
100
AcDbEntity
  8
0
 62
256
370
-1
 48
1.0
  6
BYLAYER
100
AcDbCircle
 10
39.7477075622194533
 20
-47.1358862647722532
 30
0.0
 40
0.755909840273717
100
AcDbArc
 50
120.4533274669963987
 51
244.6430980534847208
  0
ARC
  5
D8
100
AcDbEntity
  8
0
 62
256
370
-1
 48
1.0
  6
BYLAYER
100
AcDbCircle
 10
39.7528726480557069
 20
-47.0993854845796349
 30
0.0
 40
0.7274246761087946
100
AcDbArc
 50
23.0152335741810745
 51
122.261482326206945
  0
ARC
  5
D9
100
AcDbEntity
  8
0
 62
256
370
-1
 48
1.0
  6
BYLAYER
100
AcDbCircle
 10
39.8724688767850566
 20
-47.1366105881820374
 30
0.0
 40
0.6370753301208001
100
AcDbArc
 50
315.4271471937959177
 51
30.3217193284556075
  0
ARC
  5
DA
100
AcDbEntity
  8
0
 62
256
370
-1
 48
1.0
  6
BYLAYER
100
AcDbCircle
 10
39.7519144877656956
 20
-47.2287090299931052
 30
0.0
 40
0.6752375594261617
100
AcDbArc
 50
240.9448969538296978
 51
328.2807722643368606
  0
LWPOLYLINE
  5
DB
100
AcDbEntity
  8
0
 62
256
370
-1
 48
1.0
  6
BYLAYER
100
AcDbPolyline
 90
2
 70
128
 10
39.4239849999999876
 20
-47.8189700000000357
 10
39.4239849999999876
 20
-47.8189700000000073
  0
ARC
  5
DC
100
AcDbEntity
  8
0
 62
256
370
-1
 48
1.0
  6
BYLAYER
100
AcDbCircle
 10
39.6798641256438103
 20
-47.0893522312607189
 30
0.0
 40
0.7186196823635921
100
AcDbArc
 50
304.9180438020748625
 51
341.0423183237100488
  0
ARC
  5
DD
100
AcDbEntity
  8
0
 62
256
370
-1
 48
1.0
  6
BYLAYER
100
AcDbCircle
 10
39.9531108840941087
 20
-47.1129358697883234
 30
0.0
 40
0.4573875030813915
100
AcDbArc
 50
332.6868107637178014
 51
33.6844870287118141
  0
ARC
  5
DE
100
AcDbEntity
  8
0
 62
256
370
-1
 48
1.0
  6
BYLAYER
100
AcDbCircle
 10
39.7460562770689592
 20
-47.1147564252194115
 30
0.0
 40
0.6407881435095164
100
AcDbArc
 50
23.4983180760379469
 51
162.3492080199580982
  0
ARC
  5
DF
100
AcDbEntity
  8
0
 62
256
370
-1
 48
1.0
  6
BYLAYER
100
AcDbCircle
 10
39.7272302334587692
 20
-47.1559445267025197
 30
0.0
 40
0.6369258674766207
100
AcDbArc
 50
158.3016214424823431
 51
304.8528782997068447
  0
LWPOLYLINE
  5
E0
100
AcDbEntity
  8
0
 62
256
370
-1
 48
1.0
  6
BYLAYER
100
AcDbPolyline
 90
2
 70
128
 10
40.0912149999999912
 20
-47.6786200000000235
 10
40.091204999999988
 20
-47.6786000000000172
  0
ARC
  5
E1
100
AcDbEntity
  8
0
 62
256
370
-1
 48
1.0
  6
BYLAYER
100
AcDbCircle
 10
40.5411852473268794
 20
-3.5106376638566976
 30
0.0
 40
1.150878267689778
100
AcDbArc
 50
197.8917490068001257
 51
238.7339624119162522
  0
ARC
  5
E2
100
AcDbEntity
  8
0
 62
256
370
-1
 48
1.0
  6
BYLAYER
100
AcDbCircle
 10
40.2496623926745514
 20
-3.7992699691803078
 30
0.0
 40
0.8063167532643395
100
AcDbArc
 50
93.7828826288620689
 51
184.6195542541475447
  0
ARC
  5
E3
100
AcDbEntity
  8
0
 62
256
370
-1
 48
1.0
  6
BYLAYER
100
AcDbCircle
 10
40.1445353745287861
 20
-3.8116821757851911
 30
0.0
 40
0.8186209269306091
100
AcDbArc
 50
25.2657934970758085
 51
86.3629716840873272
  0
ARC
  5
E4
100
AcDbEntity
  8
0
 62
256
370
-1
 48
1.0
  6
BYLAYER
100
AcDbCircle
 10
40.4576693838856087
 20
-3.733629659213098
 30
0.0
 40
0.5060727660700125
100
AcDbArc
 50
336.8939427192942162
 51
32.4244495051433361
  0
ARC
  5
E5
100
AcDbEntity
  8
0
 62
256
370
-1
 48
1.0
  6
BYLAYER
100
AcDbCircle
 10
40.2463334145772578
 20
-3.8325459724870061
 30
0.0
 40
0.6841131686378127
100
AcDbArc
 50
290.8123852152494351
 51
351.6214434781730347
  0
ARC
  5
E6
100
AcDbEntity
  8
0
 62
256
370
-1
 48
1.0
  6
BYLAYER
100
AcDbCircle
 10
40.1911660550864553
 20
-3.8599950597005792
 30
0.0
 40
0.6808237626667384
100
AcDbArc
 50
248.7017175004699538
 51
295.9799129350866451
  0
LWPOLYLINE
  5
E7
100
AcDbEntity
  8
0
 62
256
370
-1
 48
1.0
  6
BYLAYER
100
AcDbPolyline
 90
2
 70
128
 10
39.9438749999999914
 20
-4.4943200000000445
 10
39.9438649999999882
 20
-4.4943700000000035
  0
ARC
  5
E8
100
AcDbEntity
  8
0
 62
256
370
-1
 48
1.0
  6
BYLAYER
100
AcDbCircle
 10
40.0541819204832379
 20
-3.7480363597657895
 30
0.0
 40
0.7856876857800508
100
AcDbArc
 50
314.6276668803519101
 51
16.7168067506326921
  0
ARC
  5
E9
100
AcDbEntity
  8
0
 62
256
370
-1
 48
1.0
  6
BYLAYER
100
AcDbCircle
 10
40.2000779040968581
 20
-3.7596743165294813
 30
0.0
 40
0.6514736934893274
100
AcDbArc
 50
21.3930752839648335
 51
154.7075961735607166
  0
ARC
  5
EA
100
AcDbEntity
  8
0
 62
256
370
-1
 48
1.0
  6
BYLAYER
100
AcDbCircle
 10
40.27116577468081
 20
-3.7526082229141129
 30
0.0
 40
0.7136754749973333
100
AcDbArc
 50
157.6601077977831551
 51
242.4156026964007538
  0
ARC
  5
EB
100
AcDbEntity
  8
0
 62
256
370
-1
 48
1.0
  6
BYLAYER
100
AcDbCircle
 10
40.1745273897009127
 20
-3.5015443341293384
 30
0.0
 40
0.9140318547213262
100
AcDbArc
 50
255.1775118835664955
 51
298.1766129584150917
  0
LWPOLYLINE
  5
EC
100
AcDbEntity
  8
0
 62
256
370
-1
 48
1.0
  6
BYLAYER
100
AcDbPolyline
 90
2
 70
128
 10
40.6061249999999916
 20
-4.3072600000000136
 10
40.6061249999999916
 20
-4.3071999999999946
  0
ARC
  5
ED
100
AcDbEntity
  8
0
 62
256
370
-1
 48
1.0
  6
BYLAYER
100
AcDbCircle
 10
14.9025582812589974
 20
-3.6804832734730302
 30
0.0
 40
0.7445221898069693
100
AcDbArc
 50
194.6060038478896956
 51
246.2207856069186391
  0
ARC
  5
EE
100
AcDbEntity
  8
0
 62
256
370
-1
 48
1.0
  6
BYLAYER
100
AcDbCircle
 10
14.9169861057522208
 20
-3.6605670888300428
 30
0.0
 40
0.7636660804493653
100
AcDbArc
 50
80.4249378282798943
 51
195.7790825814508082
  0
ARC
  5
EF
100
AcDbEntity
  8
0
 62
256
370
-1
 48
1.0
  6
BYLAYER
100
AcDbCircle
 10
14.8431069908818625
 20
-3.7258303405490651
 30
0.0
 40
0.8425928481471459
100
AcDbArc
 50
3.8503246149203707
 51
76.2055719092431048
  0
ARC
  5
F0
100
AcDbEntity
  8
0
 62
256
370
-1
 48
1.0
  6
BYLAYER
100
AcDbCircle
 10
14.5948931544765905
 20
-3.469856745809587
 30
0.0
 40
1.1070101320317645
100
AcDbArc
 50
311.2445857390798096
 51
349.623324690870561
  0
ARC
  5
F1
100
AcDbEntity
  8
0
 62
256
370
-1
 48
1.0
  6
BYLAYER
100
AcDbCircle
 10
14.899713429334426
 20
-3.5584697566108767
 30
0.0
 40
0.8566168686290444
100
AcDbArc
 50
249.6881969688872687
 51
299.7450805808677501
  0
LWPOLYLINE
  5
F2
100
AcDbEntity
  8
0
 62
256
370
-1
 48
1.0
  6
BYLAYER
100
AcDbPolyline
 90
2
 70
128
 10
14.6023569999999996
 20
-4.3618199999999661
 10
14.6023569999999836
 20
-4.3617999999999881
  0
ARC
  5
F3
100
AcDbEntity
  8
0
 62
256
370
-1
 48
1.0
  6
BYLAYER
100
AcDbCircle
 10
14.8073567789257901
 20
-3.5899181031338081
 30
0.0
 40
0.7696248889229031
100
AcDbArc
 50
298.8224817068334005
 51
354.0827707517825615
  0
ARC
  5
F4
100
AcDbEntity
  8
0
 62
256
370
-1
 48
1.0
  6
BYLAYER
100
AcDbCircle
 10
14.876281515991753
 20
-3.6863762027482472
 30
0.0
 40
0.6968097340860491
100
AcDbArc
 50
1.4075360570154944
 51
62.4250213757678623
  0
ARC
  5
F5
100
AcDbEntity
  8
0
 62
256
370
-1
 48
1.0
  6
BYLAYER
100
AcDbCircle
 10
14.904329082891044
 20
-3.6345331135826213
 30
0.0
 40
0.6378728312299222
100
AcDbArc
 50
62.5025293828280653
 51
161.9008448401551163
  0
ARC
  5
F6
100
AcDbEntity
  8
0
 62
256
370
-1
 48
1.0
  6
BYLAYER
100
AcDbCircle
 10
14.8944884399020356
 20
-3.6710510063590296
 30
0.0
 40
0.6409775038350611
100
AcDbArc
 50
158.5228669803127843
 51
240.4475035667281873
  0
ARC
  5
F7
100
AcDbEntity
  8
0
 62
256
370
-1
 48
1.0
  6
BYLAYER
100
AcDbCircle
 10
14.9120074411131789
 20
-3.6794396606122031
 30
0.0
 40
0.642613131980091
100
AcDbArc
 50
238.7195487737240853
 51
294.4898332595989245
  0
LWPOLYLINE
  5
F8
100
AcDbEntity
  8
0
 62
256
370
-1
 48
1.0
  6
BYLAYER
100
AcDbPolyline
 90
2
 70
128
 10
15.1783910000000066
 20
-4.2642399999999725
 10
15.1783909999999906
 20
-4.2641999999999882
  0
ENDBLK
  5
F9
100
AcDbEntity
  8
0
100
AcDbBlockEnd
  0
BLOCK
  5
FA
100
AcDbEntity
  8
0
100
AcDbBlockBegin
  2
\U+0440\U+0430\U+0441\U+0442\U+0440\U+043e\U+0432\U+0438\U+0439
 70
0
 10
0.0
 20
0.0
 30
0.0
  3
\U+0440\U+0430\U+0441\U+0442\U+0440\U+043e\U+0432\U+0438\U+0439
  1

  0
ARC
  5
FB
100
AcDbEntity
  8
0
 62
256
370
-1
 48
1.0
  6
BYLAYER
100
AcDbCircle
 10
90.4045542069756607
 20
-175.0444416623514314
 30
0.0
 40
0.6735927589397718
100
AcDbArc
 50
164.9512945185153967
 51
224.9430491324225443
  0
ARC
  5
FC
100
AcDbEntity
  8
0
 62
256
370
-1
 48
1.0
  6
BYLAYER
100
AcDbCircle
 10
88.4198244478761239
 20
-174.8494249237613474
 30
0.0
 40
1.3343893225708752
100
AcDbArc
 50
359.1358401707387884
 51
20.4001880849055404
  0
ARC
  5
FD
100
AcDbEntity
  8
0
 62
256
370
-1
 48
1.0
  6
BYLAYER
100
AcDbCircle
 10
88.4486084302710793
 20
-184.2621022464328746
 30
0.0
 40
9.9531024081774238
100
AcDbArc
 50
82.9481728668228016
 51
100.9698997451849607
  0
ARC
  5
FE
100
AcDbEntity
  8
0
 62
256
370
-1
 48
1.0
  6
BYLAYER
100
AcDbCircle
 10
84.5551443850716282
 20
-166.314883153547953
 30
0.0
 40
8.4169224583232385
100
AcDbArc
 50
263.3489843461733244
 51
283.7420942821585186
  0
LWPOLYLINE
  5
FF
100
AcDbEntity
  8
0
 62
256
370
-1
 48
1.0
  6
BYLAYER
100
AcDbPolyline
 90
3
 70
128
 10
83.5802830000000085
 20
-174.6751600000000053
 10
81.1752690000000143
 20
-174.6949600000000373
 10
81.0457040000000148
 20
-174.5551600000000008
  0
ARC
  5
100
100
AcDbEntity
  8
0
 62
256
370
-1
 48
1.0
  6
BYLAYER
100
AcDbCircle
 10
80.4790964956926302
 20
-175.3030663018932671
 30
0.0
 40
0.9383005383932759
100
AcDbArc
 50
52.8527379343378669
 51
108.8992647129727089
  0
ARC
  5
101
100
AcDbEntity
  8
0
 62
256
370
-1
 48
1.0
  6
BYLAYER
100
AcDbCircle
 10
79.8668710573418252
 20
-173.5554706130814395
 30
0.0
 40
0.9134793362276254
100
AcDbArc
 50
230.4483845428526081
 51
289.7250111425208843
  0
ARC
  5
102
100
AcDbEntity
  8
0
 62
256
370
-1
 48
1.0
  6
BYLAYER
100
AcDbCircle
 10
79.64474400577474
 20
-173.8704883103922043
 30
0.0
 40
0.5299519061723558
100
AcDbArc
 50
196.3294957079425274
 51
227.2764581339634447
  0
ARC
  5
103
100
AcDbEntity
  8
0
 62
256
370
-1
 48
1.0
  6
BYLAYER
100
AcDbCircle
 10
78.9375898680386854
 20
-174.0101536226263192
 30
0.0
 40
0.1987994888128377
100
AcDbArc
 50
357.3081829336271653
 51
32.076819128727692
  0
ARC
  5
104
100
AcDbEntity
  8
0
 62
256
370
-1
 48
1.0
  6
BYLAYER
100
AcDbCircle
 10
546.382739367881868
 20
-168.8302070741392242
 30
0.0
 40
467.3042510321648706
100
AcDbArc
 50
179.1704198982091896
 51
180.6221768060312627
  0
ARC
  5
105
100
AcDbEntity
  8
0
 62
256
370
-1
 48
1.0
  6
BYLAYER
100
AcDbCircle
 10
78.4745211875355295
 20
-161.8969577103110851
 30
0.0
 40
0.6740739746713738
100
AcDbArc
 50
345.617821798488194
 51
14.4633979712511529
  0
ARC
  5
106
100
AcDbEntity
  8
0
 62
256
370
-1
 48
1.0
  6
BYLAYER
100
AcDbCircle
 10
248.204186220967415
 20
-157.9375333735139861
 30
0.0
 40
169.1194507879137063
100
AcDbArc
 50
179.3905740328811476
 51
181.2844785869006614
  0
LWPOLYLINE
  5
107
100
AcDbEntity
  8
0
 62
256
370
-1
 48
1.0
  6
BYLAYER
100
AcDbPolyline
 90
3
 70
128
 10
79.0943020000000274
 20
-156.1387299999999811
 10
79.1084320000000218
 20
-150.5959199999999782
 10
79.2832730000000367
 20
-150.5189199999999801
  0
ARC
  5
108
100
AcDbEntity
  8
0
 62
256
370
-1
 48
1.0
  6
BYLAYER
100
AcDbCircle
 10
79.0688433268422841
 20
-150.0417149613728611
 30
0.0
 40
0.5231679783985875
100
AcDbArc
 50
294.1965262518849613
 51
329.3604381750449761
  0
ARC
  5
109
100
AcDbEntity
  8
0
 62
256
370
-1
 48
1.0
  6
BYLAYER
100
AcDbCircle
 10
62.2239106637669082
 20
-148.8553833027942233
 30
0.0
 40
17.3559854167955656
100
AcDbArc
 50
355.1978623313328853
 51
4.4924777570159433
  0
ARC
  5
10A
100
AcDbEntity
  8
0
 62
256
370
-1
 48
1.0
  6
BYLAYER
100
AcDbCircle
 10
78.8471183987860655
 20
-147.8876555948753264
 30
0.0
 40
0.7842920199102399
100
AcDbArc
 50
29.9653852016560514
 51
59.1515547582521748
  0
LWPOLYLINE
  5
10B
100
AcDbEntity
  8
0
 62
256
370
-1
 48
1.0
  6
BYLAYER
100
AcDbPolyline
 90
5
 70
128
 10
79.2492790000000156
 20
-147.2143199999999865
 10
79.0252910000000099
 20
-147.0729199999999821
 10
79.0252910000000099
 20
-144.1646399999999915
 10
79.0252910000000099
 20
-141.2563600000000008
 10
79.2701110000000142
 20
-141.1480699999999899
  0
ARC
  5
10C
100
AcDbEntity
  8
0
 62
256
370
-1
 48
1.0
  6
BYLAYER
100
AcDbCircle
 10
79.0117839514064855
 20
-140.4748814799321508
 30
0.0
 40
0.7210517648450719
100
AcDbArc
 50
290.9936340780192836
 51
320.0896278338470324
  0
ARC
  5
10D
100
AcDbEntity
  8
0
 62
256
370
-1
 48
1.0
  6
BYLAYER
100
AcDbCircle
 10
33.3628321675663457
 20
-139.3755317586833939
 30
0.0
 40
46.2284292945393815
100
AcDbArc
 50
358.0637190941038739
 51
3.7973957899961284
  0
ARC
  5
10E
100
AcDbEntity
  8
0
 62
256
370
-1
 48
1.0
  6
BYLAYER
100
AcDbCircle
 10
78.9221974652150351
 20
-137.1197326342072245
 30
0.0
 40
0.9856553113457225
100
AcDbArc
 50
54.8423185757042972
 51
72.8723787866241537
  0
LWPOLYLINE
  5
10F
100
AcDbEntity
  8
0
 62
256
370
-1
 48
1.0
  6
BYLAYER
100
AcDbPolyline
 90
3
 70
128
 10
79.2124740000000003
 20
-136.1777899999999875
 10
78.9975610000000188
 20
-136.1039899999999818
 10
78.9559110000000146
 20
-133.7833699999999908
  0
ARC
  5
110
100
AcDbEntity
  8
0
 62
256
370
-1
 48
1.0
  6
BYLAYER
100
AcDbCircle
 10
168.9751262849842988
 20
-131.7124132912938421
 30
0.0
 40
90.0430340571311802
100
AcDbArc
 50
178.3587730275350509
 51
181.3178980913045564
  0
ARC
  5
111
100
AcDbEntity
  8
0
 62
256
370
-1
 48
1.0
  6
BYLAYER
100
AcDbCircle
 10
71.3058296247592551
 20
-129.2252208247611804
 30
0.0
 40
7.66375025866492
100
AcDbArc
 50
0.6857401975935972
 51
5.2080729260293133
  0
ARC
  5
112
100
AcDbEntity
  8
0
 62
256
370
-1
 48
1.0
  6
BYLAYER
100
AcDbCircle
 10
80.0531814884227799
 20
-128.261369171165029
 30
0.0
 40
1.1470342922897694
100
AcDbArc
 50
136.3204923786784946
 51
193.5216275505299564
  0
LWPOLYLINE
  5
113
100
AcDbEntity
  8
0
 62
256
370
-1
 48
1.0
  6
BYLAYER
100
AcDbPolyline
 90
5
 70
128
 10
79.2236300000000142
 20
-127.4692000000000149
 10
79.4171960000000041
 20
-127.2756300000000209
 10
88.9737390000000232
 20
-127.2756300000000209
 10
98.5302830000000256
 20
-127.2756300000000209
 10
98.7187240000000088
 20
-127.1400300000000243
  0
ARC
  5
114
100
AcDbEntity
  8
0
 62
256
370
-1
 48
1.0
  6
BYLAYER
100
AcDbCircle
 10
100.9718242440816027
 20
-130.5096581073855759
 30
0.0
 40
4.053499018374529
100
AcDbArc
 50
108.4982580576723308
 51
123.7686483586219452
  0
ARC
  5
115
100
AcDbEntity
  8
0
 62
256
370
-1
 48
1.0
  6
BYLAYER
100
AcDbCircle
 10
99.4805848599105644
 20
-125.6893694763165712
 30
0.0
 40
0.9975459962261606
100
AcDbArc
 50
281.8685384340419091
 51
299.581466521359232
  0
ARC
  5
116
100
AcDbEntity
  8
0
 62
256
370
-1
 48
1.0
  6
BYLAYER
100
AcDbCircle
 10
101.2178039347398197
 20
-129.5011645471234942
 30
0.0
 40
3.1965926858565026
100
AcDbArc
 50
100.6621225471522081
 51
112.9174966201449593
  0
ARC
  5
117
100
AcDbEntity
  8
0
 62
256
370
-1
 48
1.0
  6
BYLAYER
100
AcDbCircle
 10
98.4175420626483515
 20
-116.0351559045083292
 30
0.0
 40
10.5582391885260645
100
AcDbArc
 50
282.0757756602901623
 51
287.367552031718219
  0
ARC
  5
118
100
AcDbEntity
  8
0
 62
256
370
-1
 48
1.0
  6
BYLAYER
100
AcDbCircle
 10
105.6368271414243338
 20
-140.4228289718441829
 30
0.0
 40
14.8776488150444823
100
AcDbArc
 50
87.772703929859162
 51
105.867079460709121
  0
ARC
  5
119
100
AcDbEntity
  8
0
 62
256
370
-1
 48
1.0
  6
BYLAYER
100
AcDbCircle
 10
106.9117143987962635
 20
-142.8433263347532716
 30
0.0
 40
17.3009392744457422
100
AcDbArc
 50
75.3428108607331382
 51
92.3078441542040053
  0
ARC
  5
11A
100
AcDbEntity
  8
0
 62
256
370
-1
 48
1.0
  6
BYLAYER
100
AcDbCircle
 10
125.2584378605952509
 20
-80.9443117503660972
 30
0.0
 40
47.272160280474651
100
AcDbArc
 50
252.8124088843797779
 51
253.9858087409958216
  0
ARC
  5
11B
100
AcDbEntity
  8
0
 62
256
370
-1
 48
1.0
  6
BYLAYER
100
AcDbCircle
 10
105.1370499290578095
 20
-149.6144206520023658
 30
0.0
 40
24.2873225362893841
100
AcDbArc
 50
69.038752613274724
 51
73.0512196398287017
  0
ARC
  5
11C
100
AcDbEntity
  8
0
 62
256
370
-1
 48
1.0
  6
BYLAYER
100
AcDbCircle
 10
112.6967003162919099
 20
-129.8647848508561538
 30
0.0
 40
3.1403093000772024
100
AcDbArc
 50
62.4556389539394914
 51
68.9330788195654378
  0
ARC
  5
11D
100
AcDbEntity
  8
0
 62
256
370
-1
 48
1.0
  6
BYLAYER
100
AcDbCircle
 10
114.499668773536257
 20
-126.4123091418467482
 30
0.0
 40
0.754597817877754
100
AcDbArc
 50
242.2991441246096542
 51
265.6367992559920594
  0
ARC
  5
11E
100
AcDbEntity
  8
0
 62
256
370
-1
 48
1.0
  6
BYLAYER
100
AcDbCircle
 10
114.2977309445995786
 20
-128.2036173119880118
 30
0.0
 40
1.0489024133401659
100
AcDbArc
 50
60.6332926834014216
 51
82.0799731435210873
  0
LWPOLYLINE
  5
11F
100
AcDbEntity
  8
0
 62
256
370
-1
 48
1.0
  6
BYLAYER
100
AcDbPolyline
 90
3
 70
128
 10
114.8121100000000183
 20
-127.2895000000000039
 10
115.0456000000000358
 20
-127.4142800000000051
 10
124.2173300000000324
 20
-127.4242800000000244
  0
ARC
  5
120
100
AcDbEntity
  8
0
 62
256
370
-1
 48
1.0
  6
BYLAYER
100
AcDbCircle
 10
125.7567400653471736
 20
-824.2159490029417839
 30
0.0
 40
696.7933694971950445
100
AcDbArc
 50
89.3619830345250108
 51
90.1265823919921729
  0
ARC
  5
121
100
AcDbEntity
  8
0
 62
256
370
-1
 48
1.0
  6
BYLAYER
100
AcDbCircle
 10
133.1620748110814532
 20
-128.1941237388775505
 30
0.0
 40
0.8096601272184296
100
AcDbArc
 50
36.0557784741889336
 51
64.1012431331236741
  0
LWPOLYLINE
  5
122
100
AcDbEntity
  8
0
 62
256
370
-1
 48
1.0
  6
BYLAYER
100
AcDbPolyline
 90
3
 70
128
 10
133.8166400000000067
 20
-127.7175800000000265
 10
133.9908900000000074
 20
-127.9376000000000317
 10
134.024390000000011
 20
-130.9860100000000216
  0
ARC
  5
123
100
AcDbEntity
  8
0
 62
256
370
-1
 48
1.0
  6
BYLAYER
100
AcDbCircle
 10
116.6684715498274727
 20
-132.3306057491052741
 30
0.0
 40
17.4079247177126604
100
AcDbArc
 50
353.9578333524930827
 51
4.4299635609361836
  0
ARC
  5
124
100
AcDbEntity
  8
0
 62
256
370
-1
 48
1.0
  6
BYLAYER
100
AcDbCircle
 10
1703.4292436633977559
 20
-152.5297195035154232
 30
0.0
 40
1569.5570199841622525
100
AcDbArc
 50
179.3295170326728964
 51
180.4790747323243068
  0
ARC
  5
125
100
AcDbEntity
  8
0
 62
256
370
-1
 48
1.0
  6
BYLAYER
100
AcDbCircle
 10
-123.2106492880499786
 20
-166.5918305546823035
 30
0.0
 40
257.1394520236066796
100
AcDbArc
 50
358.4099428299388137
 51
0.2091214931693708
  0
ARC
  5
126
100
AcDbEntity
  8
0
 62
256
370
-1
 48
1.0
  6
BYLAYER
100
AcDbCircle
 10
138.4272476436253214
 20
-180.5344568848383915
 30
0.0
 40
8.2145211864440082
100
AcDbArc
 50
124.0332869208061339
 51
126.2183684441525457
  0
ARC
  5
127
100
AcDbEntity
  8
0
 62
256
370
-1
 48
1.0
  6
BYLAYER
100
AcDbCircle
 10
133.0125108889240835
 20
-173.1943641229540276
 30
0.0
 40
0.9071725573685119
100
AcDbArc
 50
258.3975165870182309
 51
308.2053033952339547
  0
ARC
  5
128
100
AcDbEntity
  8
0
 62
256
370
-1
 48
1.0
  6
BYLAYER
100
AcDbCircle
 10
132.6884513056542119
 20
-175.6984931600601669
 30
0.0
 40
1.6216877543212125
100
AcDbArc
 50
84.9904491859137323
 51
116.6729598766716975
  0
LWPOLYLINE
  5
129
100
AcDbEntity
  8
0
 62
256
370
-1
 48
1.0
  6
BYLAYER
100
AcDbPolyline
 90
7
 70
128
 10
131.9604799999999898
 20
-174.2493800000000306
 10
131.5896599999999808
 20
-174.4157500000000312
 10
129.1952599999999904
 20
-174.4157500000000312
 10
126.8008600000000001
 20
-174.4157500000000312
 10
126.5800199999999904
 20
-174.263240000000053
 10
126.3591699999999918
 20
-174.110730000000018
 10
125.1488799999999912
 20
-174.0938300000000254
  0
ARC
  5
12A
100
AcDbEntity
  8
0
 62
256
370
-1
 48
1.0
  6
BYLAYER
100
AcDbCircle
 10
124.6428298581714103
 20
-178.3104661765997889
 30
0.0
 40
4.2468938522000759
100
AcDbArc
 50
83.1565059213900497
 51
102.9585566740360463
  0
ARC
  5
12B
100
AcDbEntity
  8
0
 62
256
370
-1
 48
1.0
  6
BYLAYER
100
AcDbCircle
 10
123.905511377693216
 20
-174.8369754101854028
 30
0.0
 40
0.6991351437063833
100
AcDbArc
 50
107.9127088772437446
 51
137.563709261146073
  0
ARC
  5
12C
100
AcDbEntity
  8
0
 62
256
370
-1
 48
1.0
  6
BYLAYER
100
AcDbCircle
 10
125.4410190415008373
 20
-174.8420080649682973
 30
0.0
 40
2.1061657452095845
100
AcDbArc
 50
166.9161198128111607
 51
182.4189197883140139
  0
ARC
  5
12D
100
AcDbEntity
  8
0
 62
256
370
-1
 48
1.0
  6
BYLAYER
100
AcDbCircle
 10
122.6576103807343827
 20
-175.1023146227409484
 30
0.0
 40
0.7004187534331668
100
AcDbArc
 50
320.8432445726421065
 51
14.1659744163680301
  0
LWPOLYLINE
  5
12E
100
AcDbEntity
  8
0
 62
256
370
-1
 48
1.0
  6
BYLAYER
100
AcDbPolyline
 90
5
 70
128
 10
123.2007300000000072
 20
-175.5445900000000279
 10
123.0647400000000005
 20
-175.6913400000000252
 10
106.5679800000000199
 20
-175.6913400000000252
 10
90.0713550000000112
 20
-175.6913400000000252
 10
89.927779000000001
 20
-175.5202700000000391
  0
ARC
  5
12F
100
AcDbEntity
  8
0
 62
256
370
-1
 48
1.0
  6
BYLAYER
100
AcDbCircle
 10
122.5134628736862226
 20
-175.0840374070162682
 30
0.0
 40
0.7323991386309852
100
AcDbArc
 50
326.5099042944166285
 51
13.4784575059151326
  0
ARC
  5
130
100
AcDbEntity
  8
0
 62
256
370
-1
 48
1.0
  6
BYLAYER
100
AcDbCircle
 10
123.8656473453183224
 20
-174.7089071204740662
 30
0.0
 40
0.6718140497939415
100
AcDbArc
 50
105.1297495126123067
 51
197.7151477265086896
  0
ARC
  5
131
100
AcDbEntity
  8
0
 62
256
370
-1
 48
1.0
  6
BYLAYER
100
AcDbCircle
 10
124.6425550736884844
 20
-178.1966918738723109
 30
0.0
 40
4.2445100592768368
100
AcDbArc
 50
83.1499958421378267
 51
102.964648278066619
  0
LWPOLYLINE
  5
132
100
AcDbEntity
  8
0
 62
256
370
-1
 48
1.0
  6
BYLAYER
100
AcDbPolyline
 90
7
 70
128
 10
125.1487999999999943
 20
-173.9824800000000096
 10
126.3590899999999948
 20
-173.9993800000000306
 10
126.5799400000000077
 20
-174.1518900000000087
 10
126.8007800000000032
 20
-174.3044100000000185
 10
129.1951799999999935
 20
-174.3044100000000185
 10
131.5895799999999838
 20
-174.3044100000000185
 10
131.9603999999999928
 20
-174.1380300000000148
  0
ARC
  5
133
100
AcDbEntity
  8
0
 62
256
370
-1
 48
1.0
  6
BYLAYER
100
AcDbCircle
 10
132.6926096591412545
 20
-175.5997063384546379
 30
0.0
 40
1.634817636110486
100
AcDbArc
 50
84.7872392262807324
 51
116.6080435058869682
  0
ARC
  5
134
100
AcDbEntity
  8
0
 62
256
370
-1
 48
1.0
  6
BYLAYER
100
AcDbCircle
 10
133.0345268656361952
 20
-173.2012920165212222
 30
0.0
 40
0.7942606011317238
100
AcDbArc
 50
255.9079538624507393
 51
309.8111949285972742
  0
LWPOLYLINE
  5
135
100
AcDbEntity
  8
0
 62
256
370
-1
 48
1.0
  6
BYLAYER
100
AcDbPolyline
 90
3
 70
128
 10
133.5430600000000254
 20
-173.8114100000000235
 10
133.7350700000000074
 20
-173.651170000000036
 10
133.7780700000000138
 20
-171.3573700000000315
  0
ARC
  5
136
100
AcDbEntity
  8
0
 62
256
370
-1
 48
1.0
  6
BYLAYER
100
AcDbCircle
 10
-218.8454156759446789
 20
-166.1745720399667618
 30
0.0
 40
352.6615715455083091
100
AcDbArc
 50
359.1579373443390182
 51
0.0847576413450365
  0
ARC
  5
137
100
AcDbEntity
  8
0
 62
256
370
-1
 48
1.0
  6
BYLAYER
100
AcDbCircle
 10
1669.9664283232768867
 20
-152.483389072115699
 30
0.0
 40
1536.2071086147000187
100
AcDbArc
 50
179.316676084243511
 51
180.4911873450201654
  0
ARC
  5
138
100
AcDbEntity
  8
0
 62
256
370
-1
 48
1.0
  6
BYLAYER
100
AcDbCircle
 10
116.9062546738763331
 20
-132.3484696987579241
 30
0.0
 40
17.0590538665382283
100
AcDbArc
 50
353.8952853019952727
 51
4.4505498195968478
  0
ARC
  5
139
100
AcDbEntity
  8
0
 62
256
370
-1
 48
1.0
  6
BYLAYER
100
AcDbCircle
 10
124.5346439457310339
 20
-129.8614139501884495
 30
0.0
 40
9.4510919515464167
100
AcDbArc
 50
352.9297683432107533
 51
12.5273436286126945
  0
ARC
  5
13A
100
AcDbEntity
  8
0
 62
256
370
-1
 48
1.0
  6
BYLAYER
100
AcDbCircle
 10
133.2756699071691457
 20
-128.0720944812246955
 30
0.0
 40
0.5506673032047994
100
AcDbArc
 50
28.2538762520679931
 51
64.2690251127734911
  0
ARC
  5
13B
100
AcDbEntity
  8
0
 62
256
370
-1
 48
1.0
  6
BYLAYER
100
AcDbCircle
 10
125.7197331532043307
 20
-837.5643646465260872
 30
0.0
 40
710.0311242937798397
100
AcDbArc
 50
89.3709712851679257
 51
90.1212409693752932
  0
LWPOLYLINE
  5
13C
100
AcDbEntity
  8
0
 62
256
370
-1
 48
1.0
  6
BYLAYER
100
AcDbPolyline
 90
3
 70
128
 10
124.217269999999985
 20
-127.5348300000000279
 10
115.0455399999999884
 20
-127.524830000000037
 10
114.8120499999999993
 20
-127.4000500000000358
  0
ARC
  5
13D
100
AcDbEntity
  8
0
 62
256
370
-1
 48
1.0
  6
BYLAYER
100
AcDbCircle
 10
114.2941172049427792
 20
-128.3763838305559943
 30
0.0
 40
1.105206826292612
100
AcDbArc
 50
62.0546128640057049
 51
85.0734929689925963
  0
ARC
  5
13E
100
AcDbEntity
  8
0
 62
256
370
-1
 48
1.0
  6
BYLAYER
100
AcDbCircle
 10
114.3718057315808778
 20
-126.8854252649333461
 30
0.0
 40
0.3902150638905321
100
AcDbArc
 50
231.7956165341947212
 51
272.5298834591845889
  0
ARC
  5
13F
100
AcDbEntity
  8
0
 62
256
370
-1
 48
1.0
  6
BYLAYER
100
AcDbCircle
 10
113.9480207407155063
 20
-127.3224318207255692
 30
0.0
 40
0.2242421544954556
100
AcDbArc
 50
35.5482651231863969
 51
72.2538009360468294
  0
ARC
  5
140
100
AcDbEntity
  8
0
 62
256
370
-1
 48
1.0
  6
BYLAYER
100
AcDbCircle
 10
114.1957715150776949
 20
-126.1818822892952454
 30
0.0
 40
0.9441782563455097
100
AcDbArc
 50
246.2289919699896075
 51
259.0467431851095057
  0
ARC
  5
141
100
AcDbEntity
  8
0
 62
256
370
-1
 48
1.0
  6
BYLAYER
100
AcDbCircle
 10
105.7036770486292596
 20
-147.8826660826384227
 30
0.0
 40
22.359896304198621
100
AcDbArc
 50
68.7295542656405871
 51
73.0641046644206824
  0
ARC
  5
142
100
AcDbEntity
  8
0
 62
256
370
-1
 48
1.0
  6
BYLAYER
100
AcDbCircle
 10
125.2191294689179415
 20
-81.186450383276977
 30
0.0
 40
47.1347928377991181
100
AcDbArc
 50
252.8106989734388605
 51
253.9875186519411727
  0
ARC
  5
143
100
AcDbEntity
  8
0
 62
256
370
-1
 48
1.0
  6
BYLAYER
100
AcDbCircle
 10
106.9116917880008089
 20
-142.953470738474266
 30
0.0
 40
17.3005954641692909
100
AcDbArc
 50
75.3426410473454524
 51
92.3080139675918616
  0
ARC
  5
144
100
AcDbEntity
  8
0
 62
256
370
-1
 48
1.0
  6
BYLAYER
100
AcDbCircle
 10
105.6367671414241869
 20
-140.5333189718435278
 30
0.0
 40
14.877648815043818
100
AcDbArc
 50
87.7727039298585794
 51
105.8670794607093626
  0
ARC
  5
145
100
AcDbEntity
  8
0
 62
256
370
-1
 48
1.0
  6
BYLAYER
100
AcDbCircle
 10
98.4131467684435961
 20
-116.1291461653829344
 30
0.0
 40
10.5752808128772529
100
AcDbArc
 50
282.0800424249638354
 51
287.3632852670455122
  0
ARC
  5
146
100
AcDbEntity
  8
0
 62
256
370
-1
 48
1.0
  6
BYLAYER
100
AcDbCircle
 10
101.2171772611282279
 20
-129.6097638032392751
 30
0.0
 40
3.1946297475228311
100
AcDbArc
 50
100.6584087325468317
 51
112.9213074434124309
  0
ARC
  5
147
100
AcDbEntity
  8
0
 62
256
370
-1
 48
1.0
  6
BYLAYER
100
AcDbCircle
 10
99.4865835341060745
 20
-125.8083588967571131
 30
0.0
 40
0.9871650757067032
100
AcDbArc
 50
281.390706879883453
 51
299.5192824819364432
  0
ARC
  5
148
100
AcDbEntity
  8
0
 62
256
370
-1
 48
1.0
  6
BYLAYER
100
AcDbCircle
 10
100.6622133748880543
 20
-129.8843871655141413
 30
0.0
 40
3.2593373519816242
100
AcDbArc
 50
107.5104094452219528
 51
124.8614059199200028
  0
LWPOLYLINE
  5
149
100
AcDbEntity
  8
0
 62
256
370
-1
 48
1.0
  6
BYLAYER
100
AcDbPolyline
 90
5
 70
128
 10
98.7991979999999899
 20
-127.2099800000000158
 10
98.5249120000000005
 20
-127.3861200000000196
 10
88.9796340000000043
 20
-127.3861200000000196
 10
79.4343549999999823
 20
-127.3861200000000196
 10
79.3068689999999776
 20
-127.5048900000000174
  0
ARC
  5
14A
100
AcDbEntity
  8
0
 62
256
370
-1
 48
1.0
  6
BYLAYER
100
AcDbCircle
 10
80.0529311284588232
 20
-128.2287919121612845
 30
0.0
 40
1.0395396471281315
100
AcDbArc
 50
135.8636882667908878
 51
156.130068849528584
  0
ARC
  5
14B
100
AcDbEntity
  8
0
 62
256
370
-1
 48
1.0
  6
BYLAYER
100
AcDbCircle
 10
81.4146214854960846
 20
-128.4016115436494658
 30
0.0
 40
2.3872617415121451
100
AcDbArc
 50
165.6051121064743938
 51
192.9295973586557977
  0
ARC
  5
14C
100
AcDbEntity
  8
0
 62
256
370
-1
 48
1.0
  6
BYLAYER
100
AcDbCircle
 10
78.5971557849450448
 20
-129.1224829951262905
 30
0.0
 40
0.5250513003300856
100
AcDbArc
 50
337.1453665075916319
 51
20.8307763768302223
  0
ARC
  5
14D
100
AcDbEntity
  8
0
 62
256
370
-1
 48
1.0
  6
BYLAYER
100
AcDbCircle
 10
106.3033475758927437
 20
-131.2671320435875941
 30
0.0
 40
27.2914513607170974
100
AcDbArc
 50
175.9221988775621526
 51
183.1643350610512186
  0
LWPOLYLINE
  5
14E
100
AcDbEntity
  8
0
 62
256
370
-1
 48
1.0
  6
BYLAYER
100
AcDbPolyline
 90
3
 70
128
 10
79.053506999999982
 20
-132.7736200000000508
 10
79.0956369999999822
 20
-136.0099200000000224
 10
79.3238859999999875
 20
-136.1208400000000438
  0
ARC
  5
14F
100
AcDbEntity
  8
0
 62
256
370
-1
 48
1.0
  6
BYLAYER
100
AcDbCircle
 10
79.0269300257605209
 20
-136.7662691040576988
 30
0.0
 40
0.7104657479437197
100
AcDbArc
 50
33.8621452794908535
 51
65.2932774089859151
  0
ARC
  5
150
100
AcDbEntity
  8
0
 62
256
370
-1
 48
1.0
  6
BYLAYER
100
AcDbCircle
 10
62.3328598562146254
 20
-138.1447018316665662
 30
0.0
 40
17.3748594612147897
100
AcDbArc
 50
358.1331207661942813
 51
5.8612002487974353
  0
LWPOLYLINE
  5
151
100
AcDbEntity
  8
0
 62
256
370
-1
 48
1.0
  6
BYLAYER
100
AcDbPolyline
 90
3
 70
128
 10
79.698496999999989
 20
-138.7107300000000123
 10
79.7153569999999831
 20
-140.9124200000000258
 10
79.5866739999999879
 20
-141.0494000000000199
  0
ARC
  5
152
100
AcDbEntity
  8
0
 62
256
370
-1
 48
1.0
  6
BYLAYER
100
AcDbCircle
 10
78.87177025817914
 20
-140.3404176546681299
 30
0.0
 40
1.0068482140132953
100
AcDbArc
 50
294.9881522905852762
 51
315.2382698131034431
  0
LWPOLYLINE
  5
153
100
AcDbEntity
  8
0
 62
256
370
-1
 48
1.0
  6
BYLAYER
100
AcDbPolyline
 90
3
 70
128
 10
79.2970939999999871
 20
-141.2530200000000207
 10
79.1361969999999815
 20
-141.3196200000000147
 10
79.1361969999999815
 20
-144.1929900000000089
  0
ARC
  5
154
100
AcDbEntity
  8
0
 62
256
370
-1
 48
1.0
  6
BYLAYER
100
AcDbCircle
 10
86.7942682295838779
 20
-145.380881039600041
 30
0.0
 40
7.7496541909521781
100
AcDbArc
 50
171.1827646009317618
 51
192.8050397675865497
  0
ARC
  5
155
100
AcDbEntity
  8
0
 62
256
370
-1
 48
1.0
  6
BYLAYER
100
AcDbCircle
 10
78.8249765580551838
 20
-147.9108870991591971
 30
0.0
 40
0.9110831871358678
100
AcDbArc
 50
42.1188763323659643
 51
63.0882380865341119
  0
LWPOLYLINE
  5
156
100
AcDbEntity
  8
0
 62
256
370
-1
 48
1.0
  6
BYLAYER
100
AcDbPolyline
 90
3
 70
128
 10
79.5007769999999852
 20
-147.2998500000000206
 10
79.6630529999999908
 20
-147.4691300000000069
 10
79.6782329999999916
 20
-148.8381899999999973
  0
ARC
  5
157
100
AcDbEntity
  8
0
 62
256
370
-1
 48
1.0
  6
BYLAYER
100
AcDbCircle
 10
76.60701052607034
 20
-149.4258733487703807
 30
0.0
 40
3.1269440677429072
100
AcDbArc
 50
342.1184899447300154
 51
10.8326915466859415
  0
ARC
  5
158
100
AcDbEntity
  8
0
 62
256
370
-1
 48
1.0
  6
BYLAYER
100
AcDbCircle
 10
79.1350013354713013
 20
-150.1142052916887621
 30
0.0
 40
0.5239162762823525
100
AcDbArc
 50
291.8394642983990934
 51
328.7498778794293344
  0
LWPOLYLINE
  5
159
100
AcDbEntity
  8
0
 62
256
370
-1
 48
1.0
  6
BYLAYER
100
AcDbPolyline
 90
3
 70
128
 10
79.3299019999999899
 20
-150.6005199999999888
 10
79.1874090000000024
 20
-150.6363199999999836
 10
79.1912089999999864
 20
-156.5499699999999734
  0
ARC
  5
15A
100
AcDbEntity
  8
0
 62
256
370
-1
 48
1.0
  6
BYLAYER
100
AcDbCircle
 10
-10278.9901723626735475
 20
-162.1440669741004115
 30
0.0
 40
10358.1828919521085481
100
AcDbArc
 50
359.9666794618293011
 51
0.0309434739475701
  0
ARC
  5
15B
100
AcDbEntity
  8
0
 62
256
370
-1
 48
1.0
  6
BYLAYER
100
AcDbCircle
 10
111.9817196553538281
 20
-170.5632005289037352
 30
0.0
 40
32.8781212776347331
100
AcDbArc
 50
175.8220755394834214
 51
186.1302619469122703
  0
LWPOLYLINE
  5
15C
100
AcDbEntity
  8
0
 62
256
370
-1
 48
1.0
  6
BYLAYER
100
AcDbPolyline
 90
3
 70
128
 10
79.2916060000000016
 20
-174.0742299999999716
 10
79.3962889999999959
 20
-174.2762899999999604
 10
80.1770749999999879
 20
-174.3039899999999705
  0
ARC
  5
15D
100
AcDbEntity
  8
0
 62
256
370
-1
 48
1.0
  6
BYLAYER
100
AcDbCircle
 10
80.4399321286425675
 20
-175.5381249782689679
 30
0.0
 40
1.2618173459995108
100
AcDbArc
 50
58.9002037808905783
 51
102.0237017141009801
  0
LWPOLYLINE
  5
15E
100
AcDbEntity
  8
0
 62
256
370
-1
 48
1.0
  6
BYLAYER
100
AcDbPolyline
 90
3
 70
128
 10
81.0916989999999913
 20
-174.4576700000000073
 10
81.2255389999999977
 20
-174.5836199999999678
 10
83.6054320000000075
 20
-174.5638199999999642
  0
ARC
  5
15F
100
AcDbEntity
  8
0
 62
256
370
-1
 48
1.0
  6
BYLAYER
100
AcDbCircle
 10
84.5696158447154431
 20
-166.3034978329193336
 30
0.0
 40
8.3164038376195908
100
AcDbArc
 50
263.3422930701105997
 51
283.8090282964039375
  0
ARC
  5
160
100
AcDbEntity
  8
0
 62
256
370
-1
 48
1.0
  6
BYLAYER
100
AcDbCircle
 10
88.4213629545025412
 20
-183.380072268258175
 30
0.0
 40
9.1920866390387612
100
AcDbArc
 50
87.7266859035580353
 51
101.7171589414417241
  0
SPLINE
  5
161
100
AcDbEntity
  8
0
 62
256
370
-1
 48
1.0
  6
BYLAYER
100
AcDbSpline
 70
8
 71
3
 72
8
 73
4
 74
0
 40
0.0
 40
0.0
 40
0.0
 40
0.0
 40
1.0
 40
1.0
 40
1.0
 40
1.0
 10
88.785979999999995
 20
-174.1952199999999777
 30
0.0
 10
89.8208669999999927
 20
-174.1956499999999437
 30
0.0
 10
89.8352429999999913
 20
-174.2042199999999639
 30
0.0
 10
89.8581769999999977
 20
-174.8397299999999461
 30
0.0
  0
ARC
  5
162
100
AcDbEntity
  8
0
 62
256
370
-1
 48
1.0
  6
BYLAYER
100
AcDbCircle
 10
91.1316794967802224
 20
-174.9099379160772969
 30
0.0
 40
1.275436302127801
100
AcDbArc
 50
176.8444903710742437
 51
204.3015640654132596
  0
LWPOLYLINE
  5
163
100
AcDbEntity
  8
0
 62
256
370
-1
 48
1.0
  6
BYLAYER
100
AcDbPolyline
 90
3
 70
128
 10
89.9692569999999989
 20
-175.4348299999999483
 10
90.0640870000000007
 20
-175.5795499999999549
 10
106.5434900000000198
 20
-175.5795499999999549
  0
ARC
  5
164
100
AcDbEntity
  8
0
 62
256
370
-1
 48
1.0
  6
BYLAYER
100
AcDbCircle
 10
113.2414610676771929
 20
112.091004665023334
 30
0.0
 40
287.7485201312158551
100
AcDbArc
 50
268.6661959634719778
 51
271.9682357254026783
  0
LWPOLYLINE
  5
165
100
AcDbEntity
  8
0
 62
256
370
-1
 48
1.0
  6
BYLAYER
100
AcDbPolyline
 90
2
 70
128
 10
123.1243100000000226
 20
-175.4877499999999486
 10
123.1242699999999957
 20
-175.4881699999999967
  0
ARC
  5
166
100
AcDbEntity
  8
0
 62
256
370
-1
 48
1.0
  6
BYLAYER
100
AcDbCircle
 10
94.229086059333838
 20
-172.7111008281991076
 30
0.0
 40
0.7295786128158172
100
AcDbArc
 50
178.0660926595744797
 51
244.1469748565050963
  0
ARC
  5
167
100
AcDbEntity
  8
0
 62
256
370
-1
 48
1.0
  6
BYLAYER
100
AcDbCircle
 10
94.062887795105496
 20
-172.6293965986130843
 30
0.0
 40
0.5658514604046345
100
AcDbArc
 50
127.5820157695752926
 51
185.7898781797285324
  0
ARC
  5
168
100
AcDbEntity
  8
0
 62
256
370
-1
 48
1.0
  6
BYLAYER
100
AcDbCircle
 10
94.1527115847659957
 20
-172.4514516119594987
 30
0.0
 40
0.512180042010373
100
AcDbArc
 50
79.7661101263357324
 51
148.1229188820612706
  0
ARC
  5
169
100
AcDbEntity
  8
0
 62
256
370
-1
 48
1.0
  6
BYLAYER
100
AcDbCircle
 10
94.3336227228105599
 20
-172.4688600556187339
 30
0.0
 40
0.5291353410548938
100
AcDbArc
 50
36.1878872938630636
 51
99.7835023783764541
  0
ARC
  5
16A
100
AcDbEntity
  8
0
 62
256
370
-1
 48
1.0
  6
BYLAYER
100
AcDbCircle
 10
94.4430555491338168
 20
-172.5875171240521411
 30
0.0
 40
0.5354556738602625
100
AcDbArc
 50
348.4508374175386507
 51
53.6166237437006572
  0
ARC
  5
16B
100
AcDbEntity
  8
0
 62
256
370
-1
 48
1.0
  6
BYLAYER
100
AcDbCircle
 10
94.4141995027988656
 20
-172.7913902175165504
 30
0.0
 40
0.561849376814459
100
AcDbArc
 50
317.5884809442732717
 51
9.9074492470819742
  0
ARC
  5
16C
100
AcDbEntity
  8
0
 62
256
370
-1
 48
1.0
  6
BYLAYER
100
AcDbCircle
 10
94.2623597305721148
 20
-172.7682736810917845
 30
0.0
 40
0.6948076552689211
100
AcDbArc
 50
239.6171507283866617
 51
324.6437598192828204
  0
LWPOLYLINE
  5
16D
100
AcDbEntity
  8
0
 62
256
370
-1
 48
1.0
  6
BYLAYER
100
AcDbPolyline
 90
2
 70
128
 10
93.9109430000000316
 20
-173.3676599999999723
 10
93.9109430000000032
 20
-173.3676600000000008
  0
ARC
  5
16E
100
AcDbEntity
  8
0
 62
256
370
-1
 48
1.0
  6
BYLAYER
100
AcDbCircle
 10
94.2056923017984786
 20
-172.685756753445645
 30
0.0
 40
0.6844065814073843
100
AcDbArc
 50
306.4594020027406032
 51
40.7006972342151698
  0
ARC
  5
16F
100
AcDbEntity
  8
0
 62
256
370
-1
 48
1.0
  6
BYLAYER
100
AcDbCircle
 10
94.3499214189583597
 20
-172.5080411580722171
 30
0.0
 40
0.4609712868751094
100
AcDbArc
 50
35.638100170447558
 51
102.6956210857463816
  0
ARC
  5
170
100
AcDbEntity
  8
0
 62
256
370
-1
 48
1.0
  6
BYLAYER
100
AcDbCircle
 10
94.1473336485882584
 20
-172.5081196145334275
 30
0.0
 40
0.4610414392136533
100
AcDbArc
 50
77.3100457640583727
 51
144.3561529504171688
  0
ARC
  5
171
100
AcDbEntity
  8
0
 62
256
370
-1
 48
1.0
  6
BYLAYER
100
AcDbCircle
 10
94.1438008223226888
 20
-172.624944387230812
 30
0.0
 40
0.5351139868541475
100
AcDbArc
 50
133.9127518497701601
 51
185.1416063035681816
  0
ARC
  5
172
100
AcDbEntity
  8
0
 62
256
370
-1
 48
1.0
  6
BYLAYER
100
AcDbCircle
 10
94.1579556928744097
 20
-172.7602468456302915
 30
0.0
 40
0.5540442697393602
100
AcDbArc
 50
170.9292949572248119
 51
242.8967882254442827
  0
ARC
  5
173
100
AcDbEntity
  8
0
 62
256
370
-1
 48
1.0
  6
BYLAYER
100
AcDbCircle
 10
94.2466344912788543
 20
-172.7379191505994243
 30
0.0
 40
0.6181587477633825
100
AcDbArc
 50
236.5095790113791452
 51
306.2781957196748976
  0
LWPOLYLINE
  5
174
100
AcDbEntity
  8
0
 62
256
370
-1
 48
1.0
  6
BYLAYER
100
AcDbPolyline
 90
2
 70
128
 10
94.6124030000000005
 20
-173.2362499999999841
 10
94.6124030000000005
 20
-173.2362099999999998
  0
ARC
  5
175
100
AcDbEntity
  8
0
 62
256
370
-1
 48
1.0
  6
BYLAYER
100
AcDbCircle
 10
118.6730025622193949
 20
-172.6923062647722986
 30
0.0
 40
0.7559098402737117
100
AcDbArc
 50
120.4533274669903733
 51
244.6430980534877904
  0
ARC
  5
176
100
AcDbEntity
  8
0
 62
256
370
-1
 48
1.0
  6
BYLAYER
100
AcDbCircle
 10
118.6781676480557053
 20
-172.6558054845796448
 30
0.0
 40
0.7274246761087987
100
AcDbArc
 50
23.0152335741809289
 51
122.2614823262067318
  0
ARC
  5
177
100
AcDbEntity
  8
0
 62
256
370
-1
 48
1.0
  6
BYLAYER
100
AcDbCircle
 10
118.7977638767850976
 20
-172.6930305881820686
 30
0.0
 40
0.637075330120775
100
AcDbArc
 50
315.4271471937959177
 51
30.3217193284574975
  0
ARC
  5
178
100
AcDbEntity
  8
0
 62
256
370
-1
 48
1.0
  6
BYLAYER
100
AcDbCircle
 10
118.6772094877656656
 20
-172.7851290299930156
 30
0.0
 40
0.6752375594262088
100
AcDbArc
 50
240.9448969538349843
 51
328.2807722643330521
  0
LWPOLYLINE
  5
179
100
AcDbEntity
  8
0
 62
256
370
-1
 48
1.0
  6
BYLAYER
100
AcDbPolyline
 90
2
 70
128
 10
118.3492799999999932
 20
-173.3753900000000385
 10
118.3492799999999932
 20
-173.3753900000000385
  0
ARC
  5
17A
100
AcDbEntity
  8
0
 62
256
370
-1
 48
1.0
  6
BYLAYER
100
AcDbCircle
 10
118.6051591256440361
 20
-172.6457722312608496
 30
0.0
 40
0.7186196823633573
100
AcDbArc
 50
304.9180438020671318
 51
341.0423183237132889
  0
ARC
  5
17B
100
AcDbEntity
  8
0
 62
256
370
-1
 48
1.0
  6
BYLAYER
100
AcDbCircle
 10
118.878405884093965
 20
-172.6693558697883759
 30
0.0
 40
0.4573875030815528
100
AcDbArc
 50
332.6868107637322396
 51
33.6844870287090288
  0
ARC
  5
17C
100
AcDbEntity
  8
0
 62
256
370
-1
 48
1.0
  6
BYLAYER
100
AcDbCircle
 10
118.6713512770689363
 20
-172.6711764252193859
 30
0.0
 40
0.6407881435094732
100
AcDbArc
 50
23.4983180760348027
 51
162.3492080199610825
  0
ARC
  5
17D
100
AcDbEntity
  8
0
 62
256
370
-1
 48
1.0
  6
BYLAYER
100
AcDbCircle
 10
118.6525252334587606
 20
-172.7123645267025154
 30
0.0
 40
0.636925867476638
100
AcDbArc
 50
158.3016214424836789
 51
304.8528782997077542
  0
LWPOLYLINE
  5
17E
100
AcDbEntity
  8
0
 62
256
370
-1
 48
1.0
  6
BYLAYER
100
AcDbPolyline
 90
2
 70
128
 10
119.0165100000000109
 20
-173.2350400000000263
 10
119.0165000000000077
 20
-173.23502000000002
  0
ARC
  5
17F
100
AcDbEntity
  8
0
 62
256
370
-1
 48
1.0
  6
BYLAYER
100
AcDbCircle
 10
119.4664802473269276
 20
-129.0670576638566445
 30
0.0
 40
1.1508782676898324
100
AcDbArc
 50
197.8917490068034795
 51
238.7339624119169628
  0
ARC
  5
180
100
AcDbEntity
  8
0
 62
256
370
-1
 48
1.0
  6
BYLAYER
100
AcDbCircle
 10
119.1749573926745427
 20
-129.3556899691803039
 30
0.0
 40
0.8063167532643362
100
AcDbArc
 50
93.7828826288614579
 51
184.6195542541484542
  0
ARC
  5
181
100
AcDbEntity
  8
0
 62
256
370
-1
 48
1.0
  6
BYLAYER
100
AcDbCircle
 10
119.0698303745287774
 20
-129.3681021757852534
 30
0.0
 40
0.8186209269306427
100
AcDbArc
 50
25.2657934970793256
 51
86.3629716840869861
  0
ARC
  5
182
100
AcDbEntity
  8
0
 62
256
370
-1
 48
1.0
  6
BYLAYER
100
AcDbCircle
 10
119.3829643838856498
 20
-129.2900496592131105
 30
0.0
 40
0.5060727660699789
100
AcDbArc
 50
336.8939427192929088
 51
32.4244495051471233
  0
ARC
  5
183
100
AcDbEntity
  8
0
 62
256
370
-1
 48
1.0
  6
BYLAYER
100
AcDbCircle
 10
119.1716284145772704
 20
-129.3889659724870285
 30
0.0
 40
0.6841131686378044
100
AcDbArc
 50
290.8123852152488666
 51
351.6214434781725231
  0
ARC
  5
184
100
AcDbEntity
  8
0
 62
256
370
-1
 48
1.0
  6
BYLAYER
100
AcDbCircle
 10
119.1164610550864609
 20
-129.4164150597003697
 30
0.0
 40
0.6808237626669524
100
AcDbArc
 50
248.701717500476974
 51
295.9799129350784028
  0
LWPOLYLINE
  5
185
100
AcDbEntity
  8
0
 62
256
370
-1
 48
1.0
  6
BYLAYER
100
AcDbPolyline
 90
2
 70
128
 10
118.8691699999999969
 20
-130.0507400000000473
 10
118.8691599999999937
 20
-130.0507900000000063
  0
ARC
  5
186
100
AcDbEntity
  8
0
 62
256
370
-1
 48
1.0
  6
BYLAYER
100
AcDbCircle
 10
118.9794769204834211
 20
-129.3044563597657941
 30
0.0
 40
0.7856876857798917
100
AcDbArc
 50
314.6276668803429288
 51
16.7168067506368736
  0
ARC
  5
187
100
AcDbEntity
  8
0
 62
256
370
-1
 48
1.0
  6
BYLAYER
100
AcDbCircle
 10
119.1253729040968636
 20
-129.3160943165294725
 30
0.0
 40
0.6514736934893085
100
AcDbArc
 50
21.393075283962169
 51
154.7075961735624219
  0
ARC
  5
188
100
AcDbEntity
  8
0
 62
256
370
-1
 48
1.0
  6
BYLAYER
100
AcDbCircle
 10
119.1964607746808014
 20
-129.3090282229141224
 30
0.0
 40
0.7136754749973158
100
AcDbArc
 50
157.6601077977815635
 51
242.415602696401578
  0
ARC
  5
189
100
AcDbEntity
  8
0
 62
256
370
-1
 48
1.0
  6
BYLAYER
100
AcDbCircle
 10
119.0998223897009325
 20
-129.0579643341295082
 30
0.0
 40
0.9140318547211799
100
AcDbArc
 50
255.177511883563426
 51
298.1766129584187297
  0
LWPOLYLINE
  5
18A
100
AcDbEntity
  8
0
 62
256
370
-1
 48
1.0
  6
BYLAYER
100
AcDbPolyline
 90
2
 70
128
 10
119.5314199999999971
 20
-129.8636800000000164
 10
119.5314199999999971
 20
-129.8636199999999974
  0
ARC
  5
18B
100
AcDbEntity
  8
0
 62
256
370
-1
 48
1.0
  6
BYLAYER
100
AcDbCircle
 10
93.8278532812589816
 20
-129.2369032734731036
 30
0.0
 40
0.7445221898069377
100
AcDbArc
 50
194.6060038478857734
 51
246.220785606918156
  0
ARC
  5
18C
100
AcDbEntity
  8
0
 62
256
370
-1
 48
1.0
  6
BYLAYER
100
AcDbCircle
 10
93.8422811057522352
 20
-129.2169870888300522
 30
0.0
 40
0.763666080449366
100
AcDbArc
 50
80.4249378282810738
 51
195.7790825814502398
  0
ARC
  5
18D
100
AcDbEntity
  8
0
 62
256
370
-1
 48
1.0
  6
BYLAYER
100
AcDbCircle
 10
93.7684019908819266
 20
-129.2822503405490124
 30
0.0
 40
0.8425928481470879
100
AcDbArc
 50
3.8503246149157286
 51
76.2055719092461885
  0
ARC
  5
18E
100
AcDbEntity
  8
0
 62
256
370
-1
 48
1.0
  6
BYLAYER
100
AcDbCircle
 10
93.5201881544767559
 20
-129.0262767458096675
 30
0.0
 40
1.1070101320316117
100
AcDbArc
 50
311.2445857390766832
 51
349.6233246908732326
  0
ARC
  5
18F
100
AcDbEntity
  8
0
 62
256
370
-1
 48
1.0
  6
BYLAYER
100
AcDbCircle
 10
93.8250084293344457
 20
-129.1148897566108076
 30
0.0
 40
0.8566168686291358
100
AcDbArc
 50
249.6881969688887466
 51
299.745080580864169
  0
LWPOLYLINE
  5
190
100
AcDbEntity
  8
0
 62
256
370
-1
 48
1.0
  6
BYLAYER
100
AcDbPolyline
 90
2
 70
128
 10
93.5276520000000033
 20
-129.9182399999999689
 10
93.5276519999999891
 20
-129.9182199999999909
  0
ARC
  5
191
100
AcDbEntity
  8
0
 62
256
370
-1
 48
1.0
  6
BYLAYER
100
AcDbCircle
 10
93.732651778925856
 20
-129.1463381031338145
 30
0.0
 40
0.7696248889228483
100
AcDbArc
 50
298.8224817068301604
 51
354.0827707517835279
  0
ARC
  5
192
100
AcDbEntity
  8
0
 62
256
370
-1
 48
1.0
  6
BYLAYER
100
AcDbCircle
 10
93.8015765159917123
 20
-129.2427962027482806
 30
0.0
 40
0.6968097340860864
100
AcDbArc
 50
1.407536057017307
 51
62.4250213757655459
  0
ARC
  5
193
100
AcDbEntity
  8
0
 62
256
370
-1
 48
1.0
  6
BYLAYER
100
AcDbCircle
 10
93.8296240828910442
 20
-129.1909531135826796
 30
0.0
 40
0.6378728312299362
100
AcDbArc
 50
62.5025293828300619
 51
161.9008448401519331
  0
ARC
  5
194
100
AcDbEntity
  8
0
 62
256
370
-1
 48
1.0
  6
BYLAYER
100
AcDbCircle
 10
93.8197834399020394
 20
-129.2274710063590533
 30
0.0
 40
0.6409775038350538
100
AcDbArc
 50
158.5228669803130117
 51
240.4475035667286988
  0
ARC
  5
195
100
AcDbEntity
  8
0
 62
256
370
-1
 48
1.0
  6
BYLAYER
100
AcDbCircle
 10
93.8373024411131809
 20
-129.2358596606123058
 30
0.0
 40
0.6426131319800121
100
AcDbArc
 50
238.7195487737207316
 51
294.489833259603472
  0
LWPOLYLINE
  5
196
100
AcDbEntity
  8
0
 62
256
370
-1
 48
1.0
  6
BYLAYER
100
AcDbPolyline
 90
2
 70
128
 10
94.1036860000000104
 20
-129.8206599999999753
 10
94.1036859999999962
 20
-129.820619999999991
  0
ENDBLK
  5
197
100
AcDbEntity
  8
0
100
AcDbBlockEnd
  0
ENDSEC
  0
SECTION
  2
ENTITIES
  0
INSERT
  5
198
100
AcDbEntity
  8
\U+0448\U+0430\U+0440 1
 62
256
370
-1
 48
1.0
  6
BYLAYER
100
AcDbBlockReference
  2
mobo_rastr
 10
0.0
 20
50.0
 30
0.0
  0
ENDSEC
  0
SECTION
  2
OBJECTS
  0
DICTIONARY
  5
C
100
AcDbDictionary
280
0
281
1
  3
ACAD_GROUP
350
D
  3
ACAD_LAYOUT
350
1A
  3
ACAD_MLINESTYLE
350
17
  3
ACAD_PLOTSETTINGS
350
19
  3
ACAD_PLOTSTYLENAME
350
E
  3
AcDbVariableDictionary
350
199
  3
QCAD_OBJECTS
350
19A
  0
DICTIONARY
  5
D
100
AcDbDictionary
280
0
281
1
  0
ACDBDICTIONARYWDFLT
  5
E
100
AcDbDictionary
281
1
  3
Normal
350
F
100
AcDbDictionaryWithDefault
340
F
  0
ACDBPLACEHOLDER
  5
F
  0
DICTIONARY
  5
17
100
AcDbDictionary
280
0
281
1
  3
Standard
350
18
  0
MLINESTYLE
  5
18
100
AcDbMlineStyle
  2
STANDARD
 70
0
  3

 62
256
 51
90.0
 52
90.0
 71
2
 49
0.5
 62
256
  6
BYLAYER
 49
-0.5
 62
256
  6
BYLAYER
  0
DICTIONARY
  5
19
100
AcDbDictionary
280
0
281
1
  0
DICTIONARY
  5
1A
100
AcDbDictionary
281
1
  3
Layout1
350
1E
  3
Layout2
350
26
  3
Model
350
22
  0
LAYOUT
  5
1E
100
AcDbPlotSettings
  1

  2
none_device
  4

  6

 40
0.0
 41
0.0
 42
0.0
 43
0.0
 44
0.0
 45
0.0
 46
0.0
 47
0.0
 48
0.0
 49
0.0
140
0.0
141
0.0
142
1.0
143
1.0
 70
688
 72
0
 73
0
 74
5
  7

 75
16
147
1.0
148
0.0
149
0.0
100
AcDbLayout
  1
Layout1
 70
1
 71
1
 10
0.0
 20
0.0
 11
420.0
 21
297.0
 12
0.0
 22
0.0
 32
0.0
 14
100000000000000000000.0
 24
100000000000000000000.0
 34
100000000000000000000.0
 15
-100000000000000000000.0
 25
-100000000000000000000.0
 35
-100000000000000000000.0
146
0.0
 13
0.0
 23
0.0
 33
0.0
 16
1.0
 26
0.0
 36
0.0
 17
0.0
 27
1.0
 37
0.0
 76
0
330
1B
  0
LAYOUT
  5
22
100
AcDbPlotSettings
  1

  2
none_device
  4

  6

 40
0.0
 41
0.0
 42
0.0
 43
0.0
 44
0.0
 45
0.0
 46
0.0
 47
0.0
 48
0.0
 49
0.0
140
0.0
141
0.0
142
1.0
143
1.0
 70
1712
 72
0
 73
0
 74
0
  7

 75
0
147
1.0
148
0.0
149
0.0
100
AcDbLayout
  1
Model
 70
1
 71
0
 10
0.0
 20
0.0
 11
12.0
 21
9.0
 12
0.0
 22
0.0
 32
0.0
 14
0.0
 24
0.0
 34
0.0
 15
0.0
 25
0.0
 35
0.0
146
0.0
 13
0.0
 23
0.0
 33
0.0
 16
1.0
 26
0.0
 36
0.0
 17
0.0
 27
1.0
 37
0.0
 76
0
330
1F
  0
LAYOUT
  5
26
100
AcDbPlotSettings
  1

  2
none_device
  4

  6

 40
0.0
 41
0.0
 42
0.0
 43
0.0
 44
0.0
 45
0.0
 46
0.0
 47
0.0
 48
0.0
 49
0.0
140
0.0
141
0.0
142
1.0
143
1.0
 70
688
 72
0
 73
0
 74
5
  7

 75
16
147
1.0
148
0.0
149
0.0
100
AcDbLayout
  1
Layout2
 70
1
 71
2
 10
0.0
 20
0.0
 11
12.0
 21
9.0
 12
0.0
 22
0.0
 32
0.0
 14
0.0
 24
0.0
 34
0.0
 15
0.0
 25
0.0
 35
0.0
146
0.0
 13
0.0
 23
0.0
 33
0.0
 16
1.0
 26
0.0
 36
0.0
 17
0.0
 27
1.0
 37
0.0
 76
0
330
23
  0
DICTIONARY
  5
199
100
AcDbDictionary
281
1
  3
DIMASSOC
350
19C
  3
HIDETEXT
350
19B
  0
DICTIONARYVAR
  5
19B
100
DictionaryVariables
280
0
  1
2
  0
DICTIONARYVAR
  5
19C
100
DictionaryVariables
280
0
  1
1
  0
DICTIONARY
  5
19A
100
AcDbDictionary
281
1
  3
ColorSettings/BackgroundColor
350
19D
  3
ColorSettings/ColorMode
350
19E
  3
Grid/DisplayGrid00
350
19F
  3
Grid/DisplayGrid01
350
1A0
  3
Grid/DisplayGrid02
350
1A1
  3
Grid/DisplayGrid03
350
1A2
  3
Grid/GridSpacingX00
350
1A3
  3
Grid/GridSpacingX01
350
1A4
  3
Grid/GridSpacingX02
350
1A5
  3
Grid/GridSpacingX03
350
1A6
  3
Grid/GridSpacingY00
350
1A7
  3
Grid/GridSpacingY01
350
1A8
  3
Grid/GridSpacingY02
350
1A9
  3
Grid/GridSpacingY03
350
1AA
  3
Grid/IsometricGrid00
350
1AB
  3
Grid/IsometricGrid01
350
1AC
  3
Grid/IsometricGrid02
350
1AD
  3
Grid/IsometricGrid03
350
1AE
  3
Grid/IsometricProjection00
350
1AF
  3
Grid/IsometricProjection01
350
1B0
  3
Grid/IsometricProjection02
350
1B1
  3
Grid/IsometricProjection03
350
1B2
  3
Grid/MetaGridSpacingX00
350
1B3
  3
Grid/MetaGridSpacingX01
350
1B4
  3
Grid/MetaGridSpacingX02
350
1B5
  3
Grid/MetaGridSpacingX03
350
1B6
  3
Grid/MetaGridSpacingY00
350
1B7
  3
Grid/MetaGridSpacingY01
350
1B8
  3
Grid/MetaGridSpacingY02
350
1B9
  3
Grid/MetaGridSpacingY03
350
1BA
  3
MultiPageSettings/Columns
350
1BB
  3
MultiPageSettings/GlueMarginsBottom
350
1BC
  3
MultiPageSettings/GlueMarginsLeft
350
1BD
  3
MultiPageSettings/GlueMarginsRight
350
1BE
  3
MultiPageSettings/GlueMarginsTop
350
1BF
  3
MultiPageSettings/PrintCropMarks
350
1C0
  3
MultiPageSettings/Rows
350
1C1
  3
PageSettings/OffsetX
350
1C2
  3
PageSettings/OffsetY
350
1C3
  3
PageSettings/PageOrientation
350
1C4
  3
PageSettings/PaperHeight
350
1C5
  3
PageSettings/PaperWidth
350
1C6
  3
PageSettings/PositionAccepted
350
1C7
  3
PageSettings/Scale
350
1C8
  3
PageSettings/ShowPaperBorders
350
1C9
  3
PageTagSettings/EnablePageTags
350
1CA
  3
PageTagSettings/TagAlignment
350
1CB
  3
PageTagSettings/TagFont
350
1CC
  3
PageTagSettings/TagPosition
350
1CD
  3
QCADVersion
350
1CE
  3
UnitSettings/PaperUnit
350
1CF
  3
ViewportCenter
350
1D0
  3
ViewportHeight
350
1D1
  3
ViewportWidth
350
1D2
  0
XRECORD
  5
19D
330
19A
100
AcDbXrecord
280
1
1000
\U+0411\U+0456\U+043b\U+0438\U+0439
  0
XRECORD
  5
19E
330
19A
100
AcDbXrecord
280
1
1000
FullColor
  0
XRECORD
  5
19F
330
19A
100
AcDbXrecord
280
1
290
1
  0
XRECORD
  5
1A0
330
19A
100
AcDbXrecord
280
1
290
1
  0
XRECORD
  5
1A1
330
19A
100
AcDbXrecord
280
1
290
1
  0
XRECORD
  5
1A2
330
19A
100
AcDbXrecord
280
1
290
1
  0
XRECORD
  5
1A3
330
19A
100
AcDbXrecord
280
1
1000
auto
  0
XRECORD
  5
1A4
330
19A
100
AcDbXrecord
280
1
1000
auto
  0
XRECORD
  5
1A5
330
19A
100
AcDbXrecord
280
1
1000
auto
  0
XRECORD
  5
1A6
330
19A
100
AcDbXrecord
280
1
1000
auto
  0
XRECORD
  5
1A7
330
19A
100
AcDbXrecord
280
1
1000
auto
  0
XRECORD
  5
1A8
330
19A
100
AcDbXrecord
280
1
1000
auto
  0
XRECORD
  5
1A9
330
19A
100
AcDbXrecord
280
1
1000
auto
  0
XRECORD
  5
1AA
330
19A
100
AcDbXrecord
280
1
1000
auto
  0
XRECORD
  5
1AB
330
19A
100
AcDbXrecord
280
1
290
0
  0
XRECORD
  5
1AC
330
19A
100
AcDbXrecord
280
1
290
0
  0
XRECORD
  5
1AD
330
19A
100
AcDbXrecord
280
1
290
0
  0
XRECORD
  5
1AE
330
19A
100
AcDbXrecord
280
1
290
0
  0
XRECORD
  5
1AF
330
19A
100
AcDbXrecord
280
1
 90
65537
  0
XRECORD
  5
1B0
330
19A
100
AcDbXrecord
280
1
 90
65537
  0
XRECORD
  5
1B1
330
19A
100
AcDbXrecord
280
1
 90
65537
  0
XRECORD
  5
1B2
330
19A
100
AcDbXrecord
280
1
 90
65537
  0
XRECORD
  5
1B3
330
19A
100
AcDbXrecord
280
1
1000
auto
  0
XRECORD
  5
1B4
330
19A
100
AcDbXrecord
280
1
1000
auto
  0
XRECORD
  5
1B5
330
19A
100
AcDbXrecord
280
1
1000
auto
  0
XRECORD
  5
1B6
330
19A
100
AcDbXrecord
280
1
1000
auto
  0
XRECORD
  5
1B7
330
19A
100
AcDbXrecord
280
1
1000
auto
  0
XRECORD
  5
1B8
330
19A
100
AcDbXrecord
280
1
1000
auto
  0
XRECORD
  5
1B9
330
19A
100
AcDbXrecord
280
1
1000
auto
  0
XRECORD
  5
1BA
330
19A
100
AcDbXrecord
280
1
1000
auto
  0
XRECORD
  5
1BB
330
19A
100
AcDbXrecord
280
1
 90
1
  0
XRECORD
  5
1BC
330
19A
100
AcDbXrecord
280
1
 40
10.0
  0
XRECORD
  5
1BD
330
19A
100
AcDbXrecord
280
1
 40
10.0
  0
XRECORD
  5
1BE
330
19A
100
AcDbXrecord
280
1
 40
10.0
  0
XRECORD
  5
1BF
330
19A
100
AcDbXrecord
280
1
 40
10.0
  0
XRECORD
  5
1C0
330
19A
100
AcDbXrecord
280
1
290
0
  0
XRECORD
  5
1C1
330
19A
100
AcDbXrecord
280
1
 90
1
  0
XRECORD
  5
1C2
330
19A
100
AcDbXrecord
280
1
 40
-0.7145305678255155
  0
XRECORD
  5
1C3
330
19A
100
AcDbXrecord
280
1
 40
-1.1436864692603028
  0
XRECORD
  5
1C4
330
19A
100
AcDbXrecord
280
1
1000
Portrait
  0
XRECORD
  5
1C5
330
19A
100
AcDbXrecord
280
1
 40
297.0
  0
XRECORD
  5
1C6
330
19A
100
AcDbXrecord
280
1
 40
210.0
  0
XRECORD
  5
1C7
330
19A
100
AcDbXrecord
280
1
290
1
  0
XRECORD
  5
1C8
330
19A
100
AcDbXrecord
280
1
1000
1:1
  0
XRECORD
  5
1C9
330
19A
100
AcDbXrecord
280
1
290
1
  0
XRECORD
  5
1CA
330
19A
100
AcDbXrecord
280
1
290
0
  0
XRECORD
  5
1CB
330
19A
100
AcDbXrecord
280
1
1000
Inside
  0
XRECORD
  5
1CC
330
19A
100
AcDbXrecord
280
1
1000
Arial,10,-1,5,50,0,0,0,0,0
  0
XRECORD
  5
1CD
330
19A
100
AcDbXrecord
280
1
1000
TopLeft
  0
XRECORD
  5
1CE
330
19A
100
AcDbXrecord
280
1
1000
3.31.1.2
  0
XRECORD
  5
1CF
330
19A
100
AcDbXrecord
280
1
 90
4
  0
XRECORD
  5
1D1
330
19A
100
AcDbXrecord
280
1
 40
78.3161450997043858
  0
XRECORD
  5
1D2
330
19A
100
AcDbXrecord
280
1
 40
123.7900358027585526
  0
ENDSEC
  0
EOF
